<svg width="60" height="61" viewBox="0 0 60 61" fill="none" xmlns="http://www.w3.org/2000/svg">
<g id="icon-3.svg" clip-path="url(#clip0_8336_1013)">
<g id="Clip path group">
<mask id="mask0_8336_1013" style="mask-type:luminance" maskUnits="userSpaceOnUse" x="0" y="0" width="60" height="60">
<g id="clip0">
<path id="Vector" d="M59.6292 0.47998H0.324219V59.785H59.6292V0.47998Z" fill="white"/>
</g>
</mask>
<g mask="url(#mask0_8336_1013)">
<g id="Group">
<path id="Vector_2" d="M40.286 57.9087C48.807 57.9087 55.7146 51.0011 55.7146 42.4801C55.7146 33.9591 48.807 27.0515 40.286 27.0515C31.765 27.0515 24.8574 33.9591 24.8574 42.4801C24.8574 51.0011 31.765 57.9087 40.286 57.9087Z" fill="#FDC040"/>
<path id="Vector_3" d="M43.4066 26.1526V14.9294C43.4066 14.6081 43.2583 14.3113 43.0483 14.0764L30.4654 0.863215C30.2305 0.616171 29.8966 0.47998 29.5632 0.47998H9.61325C5.93018 0.47998 2.98828 3.48342 2.98828 7.16691V44.8909C2.98828 48.5744 5.93018 51.5285 9.61325 51.5285H25.3607C28.3392 56.4726 33.7534 59.785 39.9209 59.785C49.2901 59.785 56.9412 52.171 56.9412 42.7897C56.9539 34.5947 51.07 27.7472 43.4066 26.1526ZM30.7993 4.81863L39.2413 13.7054H33.7657C32.1341 13.7054 30.7993 12.3584 30.7993 10.7269V4.81863ZM9.61325 49.0562C7.30205 49.0562 5.46053 47.2021 5.46053 44.8909V7.16691C5.46053 4.84307 7.30205 2.95223 9.61325 2.95223H28.327V10.7269C28.327 13.7303 30.7621 16.1777 33.7657 16.1777H40.9345V25.8309C40.5638 25.8188 40.267 25.7816 39.9458 25.7816C35.632 25.7816 31.6644 27.4381 28.6732 30.0338H12.9755C12.2954 30.0338 11.7393 30.59 11.7393 31.2695C11.7393 31.9496 12.2954 32.5057 12.9755 32.5057H26.3742C25.4964 33.7418 24.767 34.9779 24.1987 36.3375H12.9755C12.2954 36.3375 11.7393 36.8936 11.7393 37.5737C11.7393 38.2532 12.2954 38.8098 12.9755 38.8098H23.3952C23.0862 40.046 22.9255 41.4178 22.9255 42.7897C22.9255 45.0144 23.3581 47.2148 24.1368 49.0689H9.61325V49.0562ZM39.9336 57.3254C31.9241 57.3254 25.41 50.8113 25.41 42.8018C25.41 34.7924 31.9114 28.2783 39.9336 28.2783C47.9552 28.2783 54.4567 34.7924 54.4567 42.8018C54.4567 50.8113 47.9431 57.3254 39.9336 57.3254Z" fill="#3BB77E"/>
<path id="Vector_4" d="M12.9763 26.3133H25.4973C26.1773 26.3133 26.7335 25.7568 26.7335 25.0772C26.7335 24.3972 26.1773 23.8411 25.4973 23.8411H12.9763C12.2963 23.8411 11.7402 24.3972 11.7402 25.0772C11.7402 25.7568 12.2963 26.3133 12.9763 26.3133Z" fill="#3BB77E"/>
<path id="Vector_5" d="M39.5246 35.1755C39.6237 35.2 39.7223 35.2126 39.8214 35.2126C39.9449 35.2126 40.0563 35.2 40.1675 35.1628C41.7991 35.299 43.0724 36.6587 43.0724 38.3152C43.0724 38.9948 43.6284 39.5508 44.308 39.5508C44.9881 39.5508 45.5441 38.9948 45.5441 38.3152C45.5441 35.5959 43.6162 33.3214 41.0575 32.7898V31.9988C41.0575 31.3187 40.501 30.7627 39.8214 30.7627C39.1413 30.7627 38.5852 31.3187 38.5852 31.9988V32.8395C36.1131 33.4327 34.2715 35.6701 34.2715 38.3152C34.2715 41.4299 36.8053 43.9515 39.9078 43.9515C41.6507 43.9515 43.0724 45.3727 43.0724 47.1155C43.0724 48.8584 41.6629 50.2923 39.9078 50.2923C38.165 50.2923 36.7437 48.8706 36.7437 47.1278C36.7437 46.4482 36.1872 45.8916 35.5077 45.8916C34.8276 45.8916 34.2715 46.4482 34.2715 47.1278C34.2715 49.7855 36.1131 52.0102 38.5852 52.6035V53.8767C38.5852 54.5567 39.1413 55.1128 39.8214 55.1128C40.501 55.1128 41.0575 54.5567 41.0575 53.8767V52.6406C43.6162 52.1089 45.5441 49.8348 45.5441 47.1155C45.5441 44.0008 43.0103 41.4792 39.9078 41.4792C38.165 41.4792 36.7437 40.0576 36.7437 38.3152C36.7437 36.708 37.955 35.3611 39.5246 35.1755Z" fill="#3BB77E"/>
</g>
</g>
</g>
</g>
<defs>
<clipPath id="clip0_8336_1013">
<rect width="60" height="60" fill="white" transform="translate(0 0.47998)"/>
</clipPath>
</defs>
</svg>
