<svg width="60" height="61" viewBox="0 0 60 61" fill="none" xmlns="http://www.w3.org/2000/svg">
<g id="icon-2.svg" clip-path="url(#clip0_8336_993)">
<g id="Clip path group">
<mask id="mask0_8336_993" style="mask-type:luminance" maskUnits="userSpaceOnUse" x="0" y="0" width="60" height="60">
<g id="clip0">
<path id="Vector" d="M59.4671 0.47998H0.162109V59.785H59.4671V0.47998Z" fill="white"/>
</g>
</mask>
<g mask="url(#mask0_8336_993)">
<g id="Group">
<path id="Vector_2" d="M38.1426 28.7657L41.1426 24.0514L45.4283 21.9086C45.9997 21.7657 47.2283 21.5657 47.5711 21.9086C47.914 22.2514 52.8569 28.9086 55.2854 32.1943L57.4283 36.0514C56.9997 36.9086 56.0569 38.7086 55.714 39.0514C55.3711 39.3943 52.1425 40.9086 50.5711 41.6228C49.714 41.7657 47.914 42.0514 47.5711 42.0514C47.2283 42.0514 43.1425 36.6229 41.1426 33.9086L38.8926 30.0514L38.1426 28.7657Z" fill="#FDC040"/>
<path id="Vector_3" d="M47.5723 42.0515C47.2294 42.0515 43.1437 36.623 41.1437 33.9087L38.8937 30.0515H37.2866H33.0008C32.5723 30.0515 30.4294 30.9087 29.5723 31.3372L27.0008 32.6229C26.1437 33.0515 25.2866 33.9087 24.858 34.3372C24.4294 34.7658 23.5723 36.0515 23.5723 36.4801C23.5723 36.9087 23.5723 37.7658 24.0008 38.1944C24.4294 38.6229 25.2866 39.0515 25.7151 39.0515H28.2866C28.9723 39.0515 30.858 38.1944 31.7151 37.7658C32.0008 37.9087 32.658 38.2801 33.0008 38.6229C33.3437 38.9658 36.2865 41.0515 37.7151 42.0515L41.1437 45.4801C41.7152 45.7658 42.9437 46.2515 43.2866 45.9087C43.6294 45.5658 44.858 44.6229 45.4294 44.1944L46.7151 43.3372L47.5723 42.0515Z" fill="#FDC040"/>
<path id="Vector_4" d="M13.2852 46.7656C13.2852 47.4513 14.428 48.7656 14.9994 49.3371L17.9994 51.9085L19.7137 53.1942L21.428 54.9085C21.9995 55.1942 23.1423 55.8513 23.1423 56.1942C23.1423 56.5371 24.8566 56.9085 25.7137 57.0513C26.1423 56.7657 27.0852 56.1085 27.428 55.7656C27.8566 55.3371 27.8566 55.3371 27.8566 54.4799C27.8566 53.6228 27.8566 52.7656 27.428 51.9085C26.9994 51.0513 26.9994 49.3371 26.5709 48.9085C26.1423 48.4799 24.428 47.6228 24.428 47.1942C24.428 46.7656 23.1423 45.0513 22.7137 44.6228C22.2852 44.1942 21.428 42.4799 20.9994 42.0513C20.5709 41.6228 19.2852 40.7656 18.428 41.1942C17.5709 41.6228 14.9994 43.7656 14.5709 44.1942C14.228 44.5371 13.5708 46.0514 13.2852 46.7656Z" fill="#FDC040"/>
<path id="Vector_5" d="M21.4294 4.76562C24.0008 8.33706 31.3723 15.3085 40.2866 14.6228L38.5723 19.7656L36.0008 21.9085L27.858 24.4799L21.4294 22.3371L17.5723 15.4799L18.0008 9.90848L20.1437 6.05134L21.4294 4.76562Z" fill="#FDC040"/>
<path id="Vector_6" d="M28.8569 15.887C28.4044 15.887 27.8496 15.8209 27.4697 15.3975C27.3376 15.2488 27.2219 15.1099 27.1097 14.9941C26.2047 14.0417 24.6458 15.3645 25.5904 16.6011L25.8183 16.8954C25.9669 17.0808 26.2345 17.2956 26.6175 17.5404C26.9908 17.7782 27.4069 17.9503 27.8693 18.0528V19.6865C27.8693 20.2486 28.3282 20.7116 28.8899 20.7116C29.4547 20.7116 29.9335 20.2486 29.9335 19.6865V18.0429C30.6734 17.8712 31.3075 17.5106 31.826 16.9651C32.3476 16.4192 32.6086 15.6952 32.6086 14.7924C32.6086 14.1774 32.4899 13.6649 32.252 13.2514C32.0142 12.8414 31.7235 12.5538 31.3767 12.3916C31.0267 12.2295 30.6469 12.0873 30.2274 11.9651C29.8113 11.8428 29.4315 11.7567 29.0814 11.7039C28.7347 11.6541 28.444 11.5483 28.2062 11.393C27.9683 11.2341 27.8495 11.0292 27.8495 10.7745C27.8495 9.55773 29.633 9.70644 30.4189 10.3678C31.5782 11.3433 32.876 9.55773 31.5319 8.54916L31.3766 8.41017C31.2709 8.32769 31.086 8.22507 30.8185 8.09603C30.5542 7.96723 30.2569 7.8712 29.9334 7.80171V6.81309V6.38325C29.9334 5.82101 29.4742 5.35815 28.9095 5.35815C28.348 5.35815 27.8858 5.8209 27.8858 6.38325V7.78526C27.1326 7.9341 26.5084 8.30788 26.0759 8.85993C25.64 9.42221 25.4186 10.044 25.4186 10.7381C25.4186 11.436 25.5806 12.008 25.9041 12.4611C26.2278 12.9139 26.6209 13.2314 27.0866 13.4167C27.5489 13.6019 28.0112 13.7508 28.4736 13.8597C28.9392 13.9724 29.3324 14.0945 29.6558 14.2368C29.9796 14.3756 30.1414 14.5708 30.1414 14.8254C30.1415 15.533 29.7122 15.887 28.8569 15.887Z" fill="#3BB77E"/>
<path id="Vector_7" d="M58.2429 33.9374L48.7254 21.7465C48.0843 20.9232 47.1123 20.4509 46.0589 20.4509C45.3153 20.4509 44.6114 20.687 44.0207 21.1352L37.792 25.8832C37.079 26.4266 36.6235 27.2152 36.5094 28.1036C36.4923 28.236 36.4843 28.368 36.4829 28.4994C34.1083 28.3195 31.6557 28.5004 29.2739 30.0485L29.1671 30.1179L23.1418 29.1964C23.1541 28.9878 23.1475 28.7767 23.1199 28.5648C23.0051 27.6785 22.5504 26.8918 21.8388 26.3493L15.6085 21.6055C14.1488 20.4892 12.0383 20.7604 10.9033 22.2116L8.6344 25.1183C8.23732 25.6268 8.32789 26.3608 8.83642 26.7577C9.34497 27.1547 10.079 27.0641 10.476 26.5557L12.7441 23.65C13.0875 23.2109 13.7493 23.1245 14.1913 23.4627L20.423 28.2075C20.6341 28.3684 20.7691 28.6019 20.8032 28.8653C20.8373 29.1291 20.7661 29.3902 20.6035 29.599L11.0841 41.7918C10.7431 42.2298 10.0804 42.3154 9.63905 41.9807L3.41009 37.2322C3.19789 37.0705 3.06226 36.8361 3.02831 36.5723C2.99461 36.3098 3.06585 36.0505 3.22974 35.8411L4.84812 33.7678C5.24507 33.2593 5.15461 32.5253 4.646 32.1285C4.13751 31.7313 3.40349 31.822 3.00642 32.3305L1.38898 34.4026C0.837969 35.107 0.597274 35.9832 0.711251 36.87C0.825344 37.7583 1.28102 38.5468 1.99384 39.0901L8.2248 43.8403C8.8312 44.3002 9.54785 44.5228 10.2598 44.5227C10.6716 44.5227 11.0813 44.447 11.4676 44.3011L12.274 45.4055C11.8357 46.2051 11.7673 47.1656 12.1196 48.0925C12.6231 49.4179 13.8112 50.3164 15.0966 50.3592C15.1364 50.548 15.1916 50.7367 15.2671 50.9236C15.7852 52.2073 16.9682 53.0811 18.2395 53.1386C18.2453 53.1719 18.2497 53.2054 18.2565 53.2388C18.4984 54.4142 19.4001 55.418 20.5537 55.7962C20.8475 55.8925 21.1438 55.942 21.4372 55.9507C21.5496 56.4239 21.7844 56.881 22.1455 57.2823C22.7083 57.9079 23.53 58.3082 24.4314 58.308C25.086 58.308 25.7827 58.0956 26.4523 57.6061L27.775 58.8425C28.4487 59.4712 29.2969 59.7851 30.1369 59.7851C30.9889 59.785 31.8324 59.4621 32.4765 58.8173C32.8606 58.4329 33.1582 57.9755 33.3507 57.494C33.6789 57.5938 33.9996 57.641 34.3072 57.641C35.1735 57.6409 35.938 57.2751 36.4857 56.7109C36.9339 56.2493 37.2547 55.6348 37.3966 54.9798C37.444 54.9822 37.4914 54.9842 37.539 54.9846C37.5507 54.9848 37.5621 54.9848 37.5738 54.9848C38.4952 54.9848 39.3792 54.6279 40.0035 54.0027C40.4409 53.5648 40.7418 53.0259 40.8854 52.4374C41.1083 52.4809 41.3321 52.5036 41.5554 52.5036C41.8365 52.5036 42.117 52.4687 42.3932 52.3979C43.5196 52.1093 44.3894 51.229 44.6631 50.1004C44.9157 49.0591 44.6555 47.9621 43.947 46.965C45.7814 45.4891 46.5235 44.7621 47.3615 43.4026C47.9339 43.8238 48.6307 44.0557 49.3672 44.0557C50.1129 44.0557 50.8182 43.8179 51.4045 43.3696L57.6373 38.624C58.3483 38.082 58.8031 37.2954 58.918 36.409C59.0329 35.5217 58.7935 34.6443 58.2429 33.9374ZM15.7076 47.7835C15.5287 47.9452 15.3552 48.0272 15.1918 48.0272C14.8563 48.0272 14.4662 47.6916 14.3034 47.263C14.1555 46.8736 14.2244 46.5484 14.5089 46.2958L14.5127 46.2925L14.5162 46.2894L18.4514 42.7916C18.7807 42.4996 19.1119 42.3452 19.4097 42.3452C19.8455 42.3452 20.1713 42.676 20.2896 42.9838C20.4161 43.3123 20.34 43.6055 20.0647 43.8544L19.3788 44.473L19.377 44.4747C19.3735 44.4776 19.3704 44.4806 19.3669 44.4836C19.3424 44.5059 19.3171 44.5288 19.292 44.5514L15.7076 47.7835ZM18.8885 50.5754C18.7111 50.7321 18.5421 50.808 18.3721 50.808C18.0175 50.808 17.6053 50.4748 17.4336 50.0491C17.2442 49.5802 17.4689 49.3637 17.5399 49.2952C17.5855 49.2514 17.6403 49.1989 17.6974 49.1378L17.6984 49.1368L17.7105 49.1262C17.9352 48.9255 19.9139 47.1376 20.8593 46.2834L20.9298 46.2199C21.2502 45.9387 21.5747 45.79 21.8688 45.79C22.3326 45.79 22.6778 46.145 22.8024 46.4746C22.9262 46.8024 22.8519 47.0893 22.5825 47.3266L22.3402 47.5396C22.3384 47.5413 22.3366 47.5426 22.3349 47.5442L22.3332 47.5459L18.8885 50.5754ZM22.3701 53.0966C22.354 53.1111 22.3388 53.1262 22.3232 53.141L22.0491 53.3883C21.8055 53.6084 21.5616 53.6684 21.2813 53.5764C20.9269 53.4602 20.6175 53.1202 20.545 52.7681C20.4819 52.462 20.6045 52.1782 20.9156 51.904L21.3054 51.5634C21.3152 51.5548 21.3237 51.5454 21.3332 51.5366L23.8863 49.2913C24.4981 48.7504 25.1041 48.6963 25.5073 49.1471C25.5641 49.2106 26.045 49.7824 25.4579 50.3128L23.8899 51.7276C23.8731 51.7425 23.8561 51.7558 23.8394 51.7709C23.8335 51.7764 23.8286 51.7827 23.8228 51.788L22.388 53.0826C22.3823 53.0876 22.3758 53.0914 22.3701 53.0966ZM23.8824 55.7197C23.7593 55.5831 23.5218 55.2287 23.9113 54.8546L25.4755 53.4432C25.5939 53.342 25.708 53.2617 25.8148 53.2066C25.8196 53.204 25.8247 53.2014 25.8295 53.1989C26.46 52.8622 26.8016 53.2547 26.8915 53.383C27.007 53.5479 27.1478 53.8719 26.7937 54.19L25.7221 55.1532C25.718 55.1568 25.7141 55.1605 25.7101 55.1641L25.2455 55.5816C24.482 56.2669 24.0091 55.8608 23.8824 55.7197ZM42.3927 49.5498C42.3209 49.8457 42.1098 50.059 41.8134 50.135C41.322 50.2607 40.7 49.9879 40.1305 49.4036C40.0879 49.3564 40.0441 49.3098 39.9983 49.2647L35.5891 44.9062C35.1301 44.4529 34.3906 44.4571 33.9372 44.9159C33.4837 45.3747 33.4879 46.1143 33.9466 46.5677L38.3487 50.9191C38.3561 50.9269 38.3635 50.9345 38.3707 50.9423C38.5466 51.1232 38.6444 51.3648 38.6455 51.6264C38.6466 51.9027 38.5418 52.1602 38.3505 52.3518C38.1618 52.5409 37.8795 52.6487 37.5745 52.6487C37.5702 52.6487 37.566 52.6487 37.5617 52.6486C37.2916 52.6461 37.0451 52.5556 36.8716 52.3977C36.7985 52.3032 36.7189 52.2116 36.6314 52.1237L33.4081 48.8964C32.9521 48.4402 32.2125 48.4396 31.7561 48.8954C31.2997 49.3512 31.2992 50.0908 31.755 50.5472L34.8119 53.6079C34.8487 53.6618 34.8896 53.7137 34.9366 53.7623L35.0667 53.8965C35.2343 54.2156 35.1304 54.7532 34.8096 55.0838C34.3145 55.5936 33.6177 55.1441 33.1213 54.6779L31.7409 53.3784C31.2712 52.9362 30.5318 52.9586 30.0897 53.4282C29.6475 53.898 29.6698 54.6373 30.1395 55.0795L31.194 56.0721C31.1966 56.0745 31.1987 56.0771 31.2013 56.0794C31.2253 56.102 31.2616 56.136 31.2634 56.2538C31.2679 56.5276 31.0872 56.9029 30.8239 57.1665C30.4395 57.5511 29.8005 57.5374 29.3697 57.1353L28.2138 56.0548L28.355 55.9277C29.5013 54.8985 29.6863 53.3011 28.8049 52.0429C28.5181 51.6334 28.1589 51.3154 27.756 51.0946C28.324 49.9744 28.1652 48.6143 27.2484 47.5896C26.7313 47.0114 26.0007 46.6165 25.1852 46.5291C25.1619 46.236 25.0978 45.9406 24.9878 45.6495C24.5911 44.5989 23.709 43.8256 22.6709 43.5578C22.7141 43.0924 22.6498 42.6119 22.4701 42.1445C21.9784 40.8673 20.7487 40.009 19.4098 40.009C18.5318 40.009 17.6645 40.3668 16.9005 41.0445L13.9182 43.6954L13.2626 42.7976L22.1545 31.4087L26.2198 32.0305L25.6048 32.4295C22.3105 34.5668 22.0694 37.0524 22.9423 38.6661C23.6409 39.9577 25.0351 40.696 26.5151 40.696C27.1243 40.6959 27.7484 40.5707 28.3441 40.3075C28.3599 40.3004 28.3755 40.2932 28.3909 40.2856L31.4706 38.7586L33.2484 40.3774C33.2502 40.3789 33.252 40.3801 33.2536 40.3816C33.2553 40.3832 33.2568 40.3848 33.2585 40.3864L41.4757 47.6944C42.1798 48.3205 42.5227 49.0141 42.3927 49.5498ZM42.2945 45.2964L34.8161 38.6454L32.4531 36.494C32.0973 36.1698 31.5789 36.0971 31.1479 36.3111L27.3782 38.1802C26.3541 38.6207 25.3467 38.2016 24.9969 37.5549C24.5162 36.6663 25.2362 35.4532 26.8761 34.3894L30.5462 32.0079C32.5362 30.7143 34.6237 30.6145 37.4792 30.9459L45.7477 41.5405C44.8752 43.1074 44.4118 43.6048 42.2945 45.2964ZM56.6011 36.1086C56.5671 36.3717 56.432 36.6052 56.2214 36.7657L49.9873 41.5123C49.7634 41.6836 49.5266 41.7196 49.3675 41.7196C49.0398 41.7195 48.7389 41.5752 48.543 41.3246L39.027 29.1316C38.8638 28.923 38.7926 28.6637 38.8264 28.4013C38.8603 28.1374 38.9958 27.9028 39.2082 27.7411L45.435 22.9944C45.6609 22.8232 45.8988 22.7872 46.0587 22.7872C46.3867 22.7872 46.6868 22.9309 46.883 23.1828L56.4006 35.3738C56.5641 35.584 56.6354 35.8448 56.6011 36.1086Z" fill="#3BB77E"/>
<path id="Vector_8" d="M22.9602 24.2093C24.7941 25.1989 26.8658 25.7219 28.9512 25.7219C35.9035 25.7219 41.5598 20.0594 41.5598 13.0992C41.5598 8.24153 38.7238 3.76191 34.3358 1.68704C32.6455 0.886081 30.8338 0.47998 28.9512 0.47998C22.0004 0.47998 16.3457 6.14095 16.3457 13.0992C16.3457 17.7401 18.8795 21.9968 22.9602 24.2093ZM28.9512 2.81605C30.485 2.81605 31.9602 3.14651 33.3363 3.7984C36.9126 5.48941 39.2235 9.1403 39.2235 13.0992C39.2235 18.7713 34.6154 23.3858 28.9513 23.3858C27.2518 23.3858 25.5638 22.9596 24.0717 22.1546C20.7471 20.3519 18.6818 16.8821 18.6818 13.0992C18.6818 7.42909 23.2886 2.81605 28.9512 2.81605Z" fill="#3BB77E"/>
<path id="Vector_9" d="M6.01179 30.3543C6.22688 30.5259 6.48415 30.6094 6.73966 30.6094C7.08276 30.6094 7.42272 30.4588 7.65333 30.1697L7.66654 30.1532C8.06894 29.649 7.98634 28.914 7.48214 28.5117C6.97793 28.1095 6.24287 28.1917 5.8406 28.6961L5.82739 28.7128C5.42499 29.2169 5.50758 29.9518 6.01179 30.3543Z" fill="#3BB77E"/>
</g>
</g>
</g>
</g>
<defs>
<clipPath id="clip0_8336_993">
<rect width="60" height="60" fill="white" transform="translate(0 0.47998)"/>
</clipPath>
</defs>
</svg>
