<svg width="60" height="61" viewBox="0 0 60 61" fill="none" xmlns="http://www.w3.org/2000/svg">
<g id="icon-4.svg" clip-path="url(#clip0_8336_1029)">
<g id="Clip path group">
<mask id="mask0_8336_1029" style="mask-type:luminance" maskUnits="userSpaceOnUse" x="0" y="0" width="60" height="60">
<g id="clip0">
<path id="Vector" d="M59.7914 0.47998H0.486328V59.785H59.7914V0.47998Z" fill="white"/>
</g>
</mask>
<g mask="url(#mask0_8336_1029)">
<g id="Group">
<path id="Vector_2" d="M44.0158 56.4259C43.4152 56.4259 42.9214 56.8829 42.8631 57.4681H34.1466L32.7715 49.1875L34.2999 47.6592C34.5171 47.442 34.6392 47.1473 34.6392 46.8402C34.6392 46.533 34.5171 46.2384 34.2999 46.0211L32.9475 44.6687H35.2585C37.7947 44.6687 40.1547 45.9275 41.5712 48.036C41.928 48.567 42.6477 48.7082 43.1786 48.3516C43.7096 47.9948 43.8508 47.2752 43.4941 46.7441C41.661 44.0156 38.6159 42.3789 35.3364 42.3532C36.4585 41.1106 37.1429 39.4656 37.1429 37.6635V35.9646C37.1429 32.1019 34.0004 28.9595 30.1377 28.9595C26.275 28.9595 23.1326 32.1019 23.1326 35.9646V37.6635C23.1326 39.4661 23.8172 41.1113 24.9396 42.354C19.5079 42.396 15.1016 46.8261 15.1016 52.2676V58.6264C15.1016 59.2661 15.6201 59.7847 16.2599 59.7847H44.0156C44.6553 59.7847 45.1739 59.2661 45.1739 58.6264V57.5842C45.1741 56.9446 44.6555 56.4259 44.0158 56.4259ZM30.1513 48.5317L28.4596 46.8402L30.1513 45.1486L31.843 46.8402L30.1513 48.5317ZM29.5517 51.1596C29.7356 51.271 29.9432 51.3281 30.1512 51.3281C30.3592 51.3281 30.5669 51.2711 30.7506 51.1596L31.7983 57.4681H28.504L29.5517 51.1596ZM25.4494 35.9646C25.4494 33.3794 27.5526 31.2761 30.138 31.2761C32.7233 31.2761 34.8266 33.3792 34.8266 35.9646V37.6635C34.8266 40.2487 32.7233 42.3521 30.138 42.3521C27.5526 42.3521 25.4494 40.2488 25.4494 37.6635V35.9646ZM17.4184 52.2676C17.4184 48.0774 20.8273 44.6687 25.0173 44.6687H27.3548L26.0024 46.0211C25.7852 46.2384 25.6631 46.533 25.6631 46.8402C25.6631 47.1473 25.7852 47.442 26.0024 47.6592L27.5308 49.1875L26.1557 57.4681H17.4183L17.4184 52.2676Z" fill="#3BB77E"/>
<path id="Vector_3" d="M24 1.76562C24.3429 1.76562 32.1429 2.05134 36 2.1942V14.6228L24 14.1942V1.76562Z" fill="#FDC040"/>
<path id="Vector_4" d="M51.4277 2.19409L45.4277 13.3369H58.2849L52.2849 2.62266L51.4277 2.19409Z" fill="#FDC040"/>
<path id="Vector_5" d="M24 1.76562C24.3429 1.76562 32.1429 2.05134 36 2.1942V14.6228L24 14.1942V1.76562Z" stroke="black" stroke-width="0.857143" stroke-linecap="round" stroke-linejoin="round"/>
<path id="Vector_6" d="M51.4277 2.19409L45.4277 13.3369H58.2849L52.2849 2.62266L51.4277 2.19409Z" stroke="black" stroke-width="0.857143" stroke-linecap="round" stroke-linejoin="round"/>
<path id="Vector_7" d="M15.2993 7.88737C15.2993 3.80343 11.9766 0.480957 7.89285 0.480957C3.80903 0.480957 0.486328 3.80355 0.486328 7.88737C0.486328 11.9712 3.80892 15.2938 7.89274 15.2938C11.9766 15.2938 15.2993 11.9713 15.2993 7.88737ZM2.80293 7.88737C2.80293 5.08092 5.08617 2.79756 7.89274 2.79756C10.6993 2.79756 12.9825 5.08092 12.9825 7.88737C12.9825 10.6938 10.6993 12.9772 7.89274 12.9772C5.08617 12.9772 2.80293 10.694 2.80293 7.88737Z" fill="#3BB77E"/>
<path id="Vector_8" d="M23.8907 15.2929H36.3871C37.0267 15.2929 37.5453 14.7742 37.5453 14.1346V1.63828C37.5453 0.998668 37.0267 0.47998 36.3871 0.47998H23.8907C23.251 0.47998 22.7324 0.998668 22.7324 1.63828V14.1346C22.7324 14.7742 23.251 15.2929 23.8907 15.2929ZM25.049 2.79659H35.2287V12.9763H25.049V2.79659Z" fill="#3BB77E"/>
<path id="Vector_9" d="M59.6359 13.0951L52.9523 1.51909C52.7455 1.16071 52.3631 0.939941 51.9493 0.939941C51.5354 0.939941 51.153 1.16071 50.9462 1.51909L44.2626 13.0951C44.0557 13.4536 44.0557 13.8951 44.2626 14.2535C44.4695 14.6118 44.8519 14.8326 45.2657 14.8326H58.6328C59.0466 14.8326 59.429 14.6118 59.6359 14.2535C59.8428 13.8951 59.8428 13.4536 59.6359 13.0951ZM47.2719 12.516L51.9491 4.41485L56.6264 12.516H47.2719Z" fill="#3BB77E"/>
<path id="Vector_10" d="M30.1394 26.6857C30.7792 26.6857 31.2977 26.1669 31.2977 25.5273V22.2223L31.3446 22.2878C31.5708 22.6039 31.9264 22.7722 32.2876 22.7722C32.5209 22.7722 32.7565 22.7019 32.9608 22.5557C33.481 22.1834 33.6009 21.4599 33.2286 20.9397L31.0815 17.9394C30.8639 17.6354 30.5132 17.4551 30.1395 17.4551C29.7658 17.4551 29.4151 17.6354 29.1976 17.9394L27.0504 20.9397C26.6781 21.4599 26.7981 22.1834 27.3183 22.5557C27.8385 22.9279 28.5619 22.8082 28.9343 22.2879L28.9811 22.2223V25.5273C28.9811 26.1671 29.4997 26.6857 30.1394 26.6857Z" fill="#3BB77E"/>
<path id="Vector_11" d="M20.6019 36.0667C20.6019 35.427 20.0833 34.9084 19.4436 34.9084H9.05744V22.2223L9.10441 22.2878C9.33061 22.6038 9.68615 22.7722 10.0474 22.7722C10.2806 22.7722 10.5162 22.7019 10.7206 22.5557C11.2408 22.1834 11.3606 21.4599 10.9883 20.9397L8.84118 17.9394C8.62364 17.6354 8.27294 17.4551 7.89928 17.4551C7.5256 17.4551 7.17487 17.6354 6.95734 17.9394L4.8102 20.9397C4.43792 21.4599 4.55781 22.1834 5.078 22.5557C5.59808 22.9279 6.32167 22.8082 6.69406 22.2879L6.74086 22.2223V36.0667C6.74086 36.7063 7.25943 37.225 7.89916 37.225H19.4436C20.0832 37.225 20.6019 36.7064 20.6019 36.0667Z" fill="#3BB77E"/>
<path id="Vector_12" d="M53.3205 17.9394C53.1029 17.6354 52.7522 17.4551 52.3786 17.4551C52.0049 17.4551 51.6542 17.6354 51.4366 17.9394L49.2895 20.9397C48.9172 21.4599 49.0371 22.1834 49.5573 22.5557C50.0775 22.9279 50.8011 22.8082 51.1733 22.2879L51.2202 22.2224V34.9085H40.8341C40.1944 34.9085 39.6758 35.4272 39.6758 36.0668C39.6758 36.7064 40.1944 37.2251 40.8341 37.2251H52.3786C53.0182 37.2251 53.5368 36.7064 53.5368 36.0668V22.2224L53.5838 22.2879C53.81 22.6039 54.1656 22.7723 54.5267 22.7723C54.76 22.7723 54.9956 22.702 55.1999 22.5558C55.7201 22.1835 55.84 21.4601 55.4678 20.9399L53.3205 17.9394Z" fill="#3BB77E"/>
<path id="Vector_13" d="M44.0158 53.5305C44.6554 53.5305 45.174 53.0119 45.174 52.3722C45.174 51.7325 44.6554 51.2139 44.0158 51.2139C43.376 51.2139 42.8574 51.7325 42.8574 52.3722C42.8574 53.0119 43.376 53.5305 44.0158 53.5305Z" fill="#3BB77E"/>
</g>
</g>
</g>
</g>
<defs>
<clipPath id="clip0_8336_1029">
<rect width="60" height="60" fill="white" transform="translate(0 0.47998)"/>
</clipPath>
</defs>
</svg>
