<svg width="60" height="61" viewBox="0 0 60 61" fill="none" xmlns="http://www.w3.org/2000/svg">
<g id="icon-1.svg">
<g id="Clip path group">
<mask id="mask0_8336_973" style="mask-type:luminance" maskUnits="userSpaceOnUse" x="0" y="0" width="60" height="60">
<g id="clip0">
<path id="Vector" d="M59.305 0.47998H0V59.785H59.305V0.47998Z" fill="white"/>
</g>
</mask>
<g mask="url(#mask0_8336_973)">
<g id="Group">
<path id="Vector_2" d="M37.7146 4.76587H29.1431L18.8574 15.0516L24.0003 18.0516L29.1431 12.9087L39.8574 23.623L43.7146 28.3373L49.286 29.1944L51.8574 24.4802V8.19444L47.5717 4.76587H37.7146Z" fill="#FDC040"/>
<path id="Vector_3" d="M55.3668 12.8128H53.048L53.0502 8.6673C53.0516 5.88421 50.7888 3.61874 48.0052 3.61737L30.4063 3.60742H30.4041C29.4023 3.60742 28.4603 3.99745 27.7517 4.706L1.47819 30.9795C0.524855 31.9329 0 33.2002 0 34.5485C0 35.8969 0.524855 37.1642 1.47819 38.1176L18.5288 55.1681C19.5129 56.1522 20.8055 56.6441 22.0977 56.6441C23.3905 56.6441 24.6831 56.1522 25.6672 55.1681L42.2092 38.6261C42.6617 38.1737 42.6617 37.4402 42.2092 36.9882C41.7567 36.5357 41.0233 36.5357 40.5709 36.9882L24.0289 53.5302C22.9642 54.5949 21.2318 54.5949 20.1671 53.5302L3.11655 36.4797C2.60075 35.9639 2.3166 35.2779 2.3166 34.5485C2.3166 33.8192 2.60075 33.1332 3.11655 32.6174L29.3896 6.34436C29.6607 6.07334 30.0208 5.92402 30.4041 5.92402H30.405L48.0039 5.93398C49.5097 5.93443 50.7345 7.1606 50.7336 8.66639L50.7282 18.3726H45.5109C45.0615 18.3726 44.6547 18.1889 44.3607 17.893C44.8453 17.6853 45.2996 17.3853 45.6945 16.9903C47.3591 15.3252 47.3591 12.6168 45.6945 10.9523C44.0295 9.28718 41.3211 9.28718 39.656 10.9523C37.9914 12.6168 37.9914 15.3252 39.656 16.9903C40.2731 17.6075 41.0342 17.9952 41.8319 18.155C42.3988 19.6349 43.8336 20.6892 45.5109 20.6892H50.7268L50.7237 26.2418C50.7237 26.625 50.5743 26.9848 50.3033 27.2553L47.1234 30.4356C46.6709 30.8881 46.6709 31.6216 47.1234 32.0741C47.5755 32.526 48.3088 32.526 48.7613 32.0741L51.9417 28.8937C52.6493 28.1855 53.0398 27.2445 53.0403 26.2432L53.0434 20.6892H55.3668C57.5382 20.6892 59.305 18.9228 59.305 16.751C59.305 14.5796 57.5382 12.8128 55.3668 12.8128ZM41.2943 12.5902C41.6753 12.2092 42.1753 12.0191 42.6757 12.0191C43.1757 12.0191 43.6756 12.2096 44.0566 12.5902C44.177 12.7109 44.2765 12.8444 44.3589 12.9851C43.0875 13.3747 42.0885 14.3923 41.7233 15.6746C41.5699 15.5891 41.4247 15.4827 41.2943 15.3524C40.5328 14.5905 40.5328 13.3517 41.2943 12.5902ZM55.3668 18.3726H53.0448L53.0466 15.1294H55.3668C56.2609 15.1294 56.9884 15.8569 56.9884 16.751C56.9884 17.645 56.2609 18.3726 55.3668 18.3726Z" fill="#3BB77E"/>
<path id="Vector_4" d="M18.697 32.8319C18.8395 33.3444 19.3051 33.6797 19.8118 33.6797C19.915 33.6797 20.0195 33.6662 20.1232 33.6372L32.0139 30.3275C32.6301 30.1559 32.9907 29.5171 32.8192 28.9008C32.6477 28.2851 32.0093 27.9245 31.3926 28.0959L19.5019 31.4052C18.8861 31.5772 18.5255 32.2156 18.697 32.8319Z" fill="#3BB77E"/>
<path id="Vector_5" d="M23.9301 34.3603C23.2848 35.0055 22.9297 35.8629 22.9297 36.7755C22.9297 37.6877 23.2848 38.5451 23.9301 39.1903C24.5961 39.8559 25.4703 40.1889 26.3448 40.1889C27.2194 40.1889 28.0941 39.8559 28.7601 39.1903C30.0916 37.8587 30.0916 35.6918 28.7601 34.3603C27.4285 33.0287 25.2616 33.0287 23.9301 34.3603ZM27.1217 37.5519C26.6932 37.9804 25.9965 37.9804 25.568 37.5519C25.3603 37.3447 25.2463 37.0687 25.2463 36.7751C25.2463 36.4819 25.3607 36.2059 25.568 35.9982C25.7824 35.7841 26.0638 35.6769 26.3448 35.6769C26.6263 35.6769 26.9077 35.7841 27.1217 35.9982C27.5502 36.4267 27.5502 37.1239 27.1217 37.5519Z" fill="#3BB77E"/>
<path id="Vector_6" d="M29.3345 27.4639C30.6661 26.1319 30.6661 23.9655 29.3345 22.6339C28.6894 21.9887 27.8315 21.6335 26.9193 21.6335C26.0071 21.6335 25.1493 21.9887 24.5045 22.6339C23.173 23.9655 23.173 26.1319 24.5045 27.4639C25.1705 28.1295 26.0447 28.4625 26.9193 28.4625C27.7939 28.4625 28.6685 28.1295 29.3345 27.4639ZM26.1425 24.2718C26.3501 24.0641 26.6261 23.9501 26.9193 23.9501C27.2129 23.9501 27.4889 24.0641 27.6962 24.2718C28.1247 24.7003 28.1247 25.3971 27.6962 25.8256C27.2681 26.2541 26.5709 26.2541 26.1425 25.8256C25.7144 25.3971 25.7144 24.7003 26.1425 24.2718Z" fill="#3BB77E"/>
<path id="Vector_7" d="M11.5208 30.4385C11.0684 29.986 10.335 29.986 9.8825 30.4385L6.5913 33.7297C6.37411 33.9469 6.25195 34.2414 6.25195 34.5486C6.25195 34.8559 6.37411 35.1504 6.5913 35.3676L21.2796 50.0558C21.5054 50.2816 21.8022 50.3947 22.0985 50.3947C22.3949 50.3947 22.6912 50.2816 22.9175 50.0558L44.8781 28.0947C45.3306 27.6422 45.3306 26.9088 44.8781 26.4564L30.1904 11.7685C29.9732 11.5513 29.6786 11.4292 29.3714 11.4292C29.0642 11.4292 28.7696 11.5513 28.5524 11.7685L16.435 23.8859C15.9826 24.3384 15.9826 25.0718 16.435 25.5242C16.8871 25.9763 17.6205 25.9763 18.0729 25.5242L29.3714 14.2259L42.4213 27.2757L22.0985 47.5985L9.04859 34.5486L11.5208 32.0764C11.9729 31.6239 11.9733 30.8909 11.5208 30.4385Z" fill="#3BB77E"/>
<path id="Vector_8" d="M44.6662 33.3726C44.3612 33.3726 44.0626 33.4965 43.8472 33.7119C43.6318 33.9273 43.5078 34.2264 43.5078 34.5308C43.5078 34.8354 43.6318 35.1344 43.8472 35.3498C44.0626 35.5652 44.3612 35.6892 44.6662 35.6892C44.9706 35.6892 45.2692 35.5652 45.4851 35.3498C45.7005 35.1344 45.8244 34.8354 45.8244 34.5308C45.8244 34.2264 45.7005 33.9273 45.4851 33.7119C45.2692 33.4965 44.9706 33.3726 44.6662 33.3726Z" fill="#3BB77E"/>
<path id="Vector_9" d="M14.7951 28.7995C15.0119 28.5842 15.135 28.2864 15.135 27.9806C15.135 27.6761 15.0119 27.3784 14.7951 27.1616C14.5798 26.9463 14.282 26.8223 13.9766 26.8223C13.6716 26.8223 13.373 26.9463 13.1577 27.1616C12.9419 27.377 12.8184 27.6761 12.8184 27.9806C12.8184 28.2864 12.9419 28.5842 13.1577 28.7995C13.374 29.0163 13.6716 29.1389 13.9766 29.1389C14.282 29.1389 14.5798 29.0163 14.7951 28.7995Z" fill="#3BB77E"/>
</g>
</g>
</g>
</g>
</svg>
