<svg width="52" height="54" viewBox="0 0 52 54" fill="none" xmlns="http://www.w3.org/2000/svg">
<g id="Group">
<path id="Vector" d="M26.7238 2.15689C26.7238 2.15689 26.106 2.79831 26.2694 4.01179C26.4329 5.22527 27.0973 6.90766 27.0075 8.07311C26.9176 9.23856 25.8439 12.1049 25.8439 12.1049L27.1794 14.0654L28.9937 12.6585C28.9937 12.6585 30.1327 8.96299 29.988 7.49069C29.8433 6.01839 29.7198 2.49569 29.7198 2.49569L26.7238 2.15689Z" fill="#433709"/>
<path id="Vector_2" d="M27.9039 2.29505C27.9308 2.99984 28.266 5.91028 28.3926 7.19532C28.5373 8.66762 27.3983 12.3632 27.3983 12.3632L26.1993 13.0524L26.8688 14.0352L28.6831 12.6283C28.6831 12.6283 29.8221 8.93271 29.6774 7.4604C29.5328 5.9881 29.4092 2.46541 29.4092 2.46541L27.9056 2.29538L27.9039 2.29505Z" fill="#261C02"/>
<path id="Vector_3" d="M29.7267 2.56902C29.6896 2.95288 28.9709 3.19942 28.1226 3.11709C27.2733 3.03545 26.6161 2.65647 26.6525 2.27159C26.6896 1.88773 27.4083 1.64119 28.2566 1.72353C29.1059 1.80516 29.7631 2.18415 29.7267 2.56902Z" fill="#FCD3B3"/>
<path id="Vector_4" d="M26.1407 10.5814C26.1407 10.5814 20.2753 10.6158 15.8198 18.449C11.3652 26.2814 12.0881 32.8556 15.1323 38.5118C18.1754 44.1687 21.6639 46.9222 27.0562 47.321C32.4476 47.7205 41.1878 39.3693 41.1786 33.5917C41.1671 26.1608 39.1529 19.4264 37.057 16.29C34.961 13.1537 32.0404 11.6788 30.5333 11.0851C29.0278 10.4917 27.4124 10.3933 27.4124 10.3933L26.1417 10.5807L26.1407 10.5814Z" fill="#4B5B19"/>
<g id="Group_2">
<path id="Vector_5" d="M23.0295 9.85462C23.0295 9.85462 23.9996 10.8007 24.3379 10.9649L24.6752 11.1297L24.0144 12.4215C24.0144 12.4215 23.1017 11.6014 23.1165 11.5748C23.1314 11.5482 23.0285 9.85532 23.0285 9.85532L23.0295 9.85462Z" fill="#6B7B3E"/>
<path id="Vector_6" d="M23.0304 9.85473C22.7305 10.8947 22.2438 11.6448 22.2438 11.6448L24.0159 12.4227L23.0311 9.85576L23.0304 9.85473Z" fill="#4B5B19"/>
</g>
<g id="Group_3">
<path id="Vector_7" d="M20.9479 10.5769C20.9479 10.5769 22.1121 11.2707 22.4796 11.352L22.847 11.4333L22.5054 12.8437C22.5054 12.8437 21.4269 12.2581 21.4352 12.2284C21.4435 12.1988 20.9489 10.5762 20.9489 10.5762L20.9479 10.5769Z" fill="#6B7B3E"/>
<path id="Vector_8" d="M20.9488 10.5768C20.8991 11.6579 20.6018 12.5011 20.6018 12.5011L22.5064 12.8436L20.9488 10.5768Z" fill="#4B5B19"/>
</g>
<g id="Group_4">
<path id="Vector_9" d="M19.3417 11.6934C19.3417 11.6934 20.601 12.1963 20.9751 12.2191L21.3509 12.2422L21.2346 13.6882C21.2346 13.6882 20.078 13.2788 20.0812 13.2481C20.0843 13.2175 19.3427 11.6927 19.3427 11.6927L19.3417 11.6934Z" fill="#6B7B3E"/>
<path id="Vector_10" d="M19.3411 11.6935C19.4619 12.7695 19.2987 13.6489 19.2987 13.6489L21.233 13.6891L19.3401 11.6942L19.3411 11.6935Z" fill="#4B5B19"/>
</g>
<g id="Group_5">
<path id="Vector_11" d="M14.8711 16.8296C14.8711 16.8296 16.2257 16.8866 16.5869 16.7846L16.949 16.682L17.3194 18.0846C17.3194 18.0846 16.0918 18.082 16.085 18.0522C16.0782 18.0223 14.8728 16.8299 14.8728 16.8299L14.8711 16.8296Z" fill="#6B7B3E"/>
<path id="Vector_12" d="M14.8707 16.8295C15.341 17.804 15.4795 18.6879 15.4795 18.6879L17.3183 18.0835L14.8718 16.8288L14.8707 16.8295Z" fill="#4B5B19"/>
</g>
<g id="Group_6">
<path id="Vector_13" d="M16.0312 14.9888C16.0312 14.9888 17.3859 15.0458 17.747 14.9438L18.1092 14.8411L18.4795 16.2438C18.4795 16.2438 17.252 16.2412 17.2452 16.2114C17.2383 16.1815 16.033 14.9891 16.033 14.9891L16.0312 14.9888Z" fill="#6B7B3E"/>
<path id="Vector_14" d="M16.0309 14.9887C16.5012 15.9631 16.6396 16.8471 16.6396 16.8471L18.4785 16.2426L16.0319 14.988L16.0309 14.9887Z" fill="#4B5B19"/>
</g>
<g id="Group_7">
<path id="Vector_15" d="M17.5566 13.2173C17.5566 13.2173 18.8852 13.4871 19.2586 13.4428L19.632 13.3985L19.7768 14.8422C19.7768 14.8422 18.5645 14.6462 18.5632 14.6157C18.5618 14.5851 17.5584 13.2176 17.5584 13.2176L17.5566 13.2173Z" fill="#6B7B3E"/>
<path id="Vector_16" d="M17.5559 13.2174C17.8671 14.2537 17.8634 15.149 17.8634 15.149L19.7743 14.842L17.5559 13.2174Z" fill="#4B5B19"/>
</g>
<g id="Group_8">
<path id="Vector_17" d="M24.9484 9.23498C24.9484 9.23498 25.8282 10.2666 26.1493 10.4605L26.4711 10.6554L25.6943 11.8806C25.6943 11.8806 24.8613 10.9792 24.8785 10.954C24.8958 10.9287 24.9487 9.23325 24.9487 9.23325L24.9484 9.23498Z" fill="#6B7B3E"/>
<path id="Vector_18" d="M24.9476 9.23491C24.5539 10.2428 23.9996 10.9444 23.9996 10.9444L25.6924 11.8813L24.9469 9.23388L24.9476 9.23491Z" fill="#4B5B19"/>
</g>
<g id="Group_9">
<path id="Vector_19" d="M11.6895 25.3184C11.6895 25.3184 12.9703 24.875 13.2686 24.6478L13.568 24.4198L14.4261 25.5892C14.4261 25.5892 13.2828 26.0364 13.2661 26.0118C13.2493 25.9872 11.6895 25.3184 11.6895 25.3184Z" fill="#6B7B3E"/>
<path id="Vector_20" d="M11.6895 25.3184C12.4837 26.0526 12.9361 26.8247 12.9361 26.8247L14.4261 25.5892L11.6895 25.3184Z" fill="#4B5B19"/>
</g>
<g id="Group_10">
<path id="Vector_21" d="M12.0742 23.3994C12.0742 23.3994 13.3551 22.956 13.6534 22.7288L13.9528 22.5009L14.8108 23.6703C14.8108 23.6703 13.6676 24.1174 13.6508 24.0929C13.6341 24.0683 12.0742 23.3994 12.0742 23.3994Z" fill="#6B7B3E"/>
<path id="Vector_22" d="M12.0742 23.3994C12.8685 24.1337 13.3209 24.9058 13.3209 24.9058L14.8108 23.6703L12.0742 23.3994Z" fill="#4B5B19"/>
</g>
<g id="Group_11">
<path id="Vector_23" d="M12.7081 21.1375C12.7081 21.1375 14.0407 20.8869 14.3687 20.7054L14.6978 20.5233L15.3754 21.8067C15.3754 21.8067 14.1792 22.0813 14.1655 22.0546C14.1529 22.0273 12.707 21.1382 12.707 21.1382L12.7081 21.1375Z" fill="#6B7B3E"/>
<path id="Vector_24" d="M12.7072 21.1376C13.3863 21.9804 13.7206 22.8104 13.7206 22.8104L15.3745 21.8068L12.7072 21.1376Z" fill="#4B5B19"/>
</g>
<g id="Group_12">
<path id="Vector_25" d="M13.7148 18.9917C13.7148 18.9917 15.0649 18.8658 15.4084 18.7158L15.7529 18.5652L16.309 19.9058C16.309 19.9058 15.092 20.0686 15.0814 20.0398C15.0708 20.011 13.7148 18.9917 13.7148 18.9917Z" fill="#6B7B3E"/>
<path id="Vector_26" d="M13.7142 18.9918C14.3114 19.8948 14.5675 20.7511 14.5675 20.7511L16.3077 19.9048L13.7142 18.9918Z" fill="#4B5B19"/>
</g>
<g id="Group_13">
<path id="Vector_27" d="M11.4512 27.4033C11.4512 27.4033 12.732 26.9599 13.0304 26.7327L13.3297 26.5048L14.1878 27.6742C14.1878 27.6742 13.0446 28.1214 13.0278 28.0968C13.0111 28.0722 11.4512 27.4033 11.4512 27.4033Z" fill="#6B7B3E"/>
<path id="Vector_28" d="M11.4512 27.4033C12.2454 28.1376 12.6978 28.9097 12.6978 28.9097L14.1878 27.6742L11.4512 27.4033Z" fill="#4B5B19"/>
</g>
<g id="Group_14">
<path id="Vector_29" d="M11.1327 29.6839C11.1327 29.6839 12.2763 28.9574 12.5145 28.6661L12.7527 28.3749L13.8578 29.3145C13.8578 29.3145 12.8488 30.0138 12.8259 29.9933C12.803 29.9729 11.132 29.6828 11.132 29.6828L11.1327 29.6839Z" fill="#6B7B3E"/>
<path id="Vector_30" d="M11.1328 29.6841C12.0753 30.2153 12.6943 30.8619 12.6943 30.8619L13.8586 29.3157L11.1338 29.6834L11.1328 29.6841Z" fill="#4B5B19"/>
</g>
<g id="Group_15">
<path id="Vector_31" d="M11.3933 32.331C11.3933 32.331 12.3168 31.3388 12.4727 30.9971L12.6302 30.6557L13.9369 31.2855C13.9369 31.2855 13.1373 32.2173 13.1106 32.2024C13.083 32.1882 11.3933 32.331 11.3933 32.331Z" fill="#6B7B3E"/>
<path id="Vector_32" d="M11.3926 32.3311C12.4388 32.6071 13.2005 33.0755 13.2005 33.0755L13.9362 31.2856L11.3926 32.3311Z" fill="#4B5B19"/>
</g>
<g id="Group_16">
<path id="Vector_33" d="M11.9334 33.877C11.9334 33.877 12.9904 33.028 13.1947 32.7133L13.3989 32.3987L14.6005 33.2111C14.6005 33.2111 13.6747 34.0172 13.6505 33.9992C13.6262 33.9812 11.9324 33.8777 11.9324 33.8777L11.9334 33.877Z" fill="#6B7B3E"/>
<path id="Vector_34" d="M11.9327 33.8772C12.9285 34.3017 13.6138 34.8761 13.6138 34.8761L14.5998 33.2113L11.9316 33.8779L11.9327 33.8772Z" fill="#4B5B19"/>
</g>
<g id="Group_17">
<path id="Vector_35" d="M12.5014 36.2029C12.5014 36.2029 13.3333 35.1335 13.4595 34.7791L13.5856 34.4246L14.943 34.9373C14.943 34.9373 14.229 35.9353 14.2 35.9235C14.172 35.9111 12.5007 36.2019 12.5007 36.2019L12.5014 36.2029Z" fill="#6B7B3E"/>
<path id="Vector_36" d="M12.501 36.2029C13.5677 36.3856 14.3672 36.7862 14.3672 36.7862L14.9424 34.939L12.5 36.2036L12.501 36.2029Z" fill="#4B5B19"/>
</g>
<g id="Group_18">
<path id="Vector_37" d="M13.3805 38.4177C13.3805 38.4177 13.9156 37.1725 13.9483 36.7976L13.981 36.4228L15.4236 36.5759C15.4236 36.5759 14.9848 37.7225 14.9545 37.7176C14.9242 37.7127 13.3808 38.416 13.3808 38.416L13.3805 38.4177Z" fill="#6B7B3E"/>
<path id="Vector_38" d="M13.3813 38.4178C14.46 38.3252 15.3344 38.5098 15.3344 38.5098L15.4234 36.5767L13.3806 38.4168L13.3813 38.4178Z" fill="#4B5B19"/>
</g>
<g id="Group_19">
<path id="Vector_39" d="M14.1855 40.1121C14.1855 40.1121 14.954 38.9959 15.0598 38.6358L15.1656 38.2757L16.5505 38.7097C16.5505 38.7097 15.895 39.7473 15.8656 39.7373C15.8363 39.7273 14.1851 40.1138 14.1851 40.1138L14.1855 40.1121Z" fill="#6B7B3E"/>
<path id="Vector_40" d="M14.1855 40.1123C15.2612 40.2333 16.0822 40.5862 16.0822 40.5862L16.5498 38.7089L14.1855 40.1123Z" fill="#4B5B19"/>
</g>
<g id="Group_20">
<path id="Vector_41" d="M15.2803 42.1381C15.2803 42.1381 15.7716 40.8748 15.7909 40.5L15.8102 40.1253L17.2571 40.2275C17.2571 40.2275 16.8584 41.3888 16.8287 41.3849C16.7981 41.3818 15.2803 42.1381 15.2803 42.1381Z" fill="#6B7B3E"/>
<path id="Vector_42" d="M15.2801 42.1383C16.3542 42.0082 17.2352 42.1628 17.2352 42.1628L17.2568 40.2276L15.2801 42.1383Z" fill="#4B5B19"/>
</g>
<g id="Group_21">
<path id="Vector_43" d="M17.06 44.1153C17.06 44.1153 17.2155 42.7686 17.1389 42.4007L17.0623 42.0328L18.489 41.7661C18.489 41.7661 18.397 42.99 18.3668 42.9941C18.3366 42.9982 17.0593 44.1143 17.0593 44.1143L17.06 44.1153Z" fill="#6B7B3E"/>
<path id="Vector_44" d="M17.0601 44.1151C18.0673 43.7171 18.9576 43.6432 18.9576 43.6432L18.4891 41.7658L17.0601 44.1151Z" fill="#4B5B19"/>
</g>
<g id="Group_22">
<path id="Vector_45" d="M18.411 45.0401C18.411 45.0401 18.7594 43.73 18.7367 43.3554L18.7151 42.98L20.1656 42.9222C20.1656 42.9222 19.8982 44.12 19.867 44.1203C19.8367 44.1199 18.411 45.0401 18.411 45.0401Z" fill="#6B7B3E"/>
<path id="Vector_46" d="M18.4105 45.04C19.4642 44.7918 20.3559 44.8476 20.3559 44.8476L20.1634 42.9218L18.4098 45.039L18.4105 45.04Z" fill="#4B5B19"/>
</g>
<g id="Group_23">
<path id="Vector_47" d="M20.2447 46.578C20.2447 46.578 20.282 45.2232 20.1736 44.8635L20.0651 44.5038L21.4627 44.1129C21.4627 44.1129 21.478 45.3402 21.4489 45.3481C21.419 45.3549 20.2454 46.579 20.2454 46.579L20.2447 46.578Z" fill="#6B7B3E"/>
<path id="Vector_48" d="M20.244 46.5781C21.2115 46.0931 22.0925 45.9416 22.0925 45.9416L21.4614 44.1119L20.244 46.5781Z" fill="#4B5B19"/>
</g>
<g id="Group_24">
<path id="Vector_49" d="M40.8813 20.9045C40.8813 20.9045 39.9262 21.8657 39.7579 22.2024L39.5907 22.5384L38.3056 21.8654C38.3056 21.8654 39.1357 20.9608 39.1613 20.9764C39.188 20.9913 40.8813 20.9045 40.8813 20.9045Z" fill="#6B7B3E"/>
<path id="Vector_50" d="M40.8817 20.9047C39.8444 20.5955 39.0994 20.1008 39.0994 20.1008L38.306 21.8656L40.8827 20.904L40.8817 20.9047Z" fill="#4B5B19"/>
</g>
<g id="Group_25">
<path id="Vector_51" d="M40.0102 18.5816C40.0102 18.5816 39.3752 19.7793 39.3128 20.1504L39.2498 20.5204L37.8249 20.2502C37.8249 20.2502 38.3553 19.1433 38.3852 19.1498C38.4152 19.1564 40.0102 18.5816 40.0102 18.5816Z" fill="#6B7B3E"/>
<path id="Vector_52" d="M40.0094 18.5814C38.9268 18.5868 38.0695 18.3305 38.0695 18.3305L37.8225 20.2497L40.0077 18.5811L40.0094 18.5814Z" fill="#4B5B19"/>
</g>
<g id="Group_26">
<path id="Vector_53" d="M38.9368 16.553C38.9368 16.553 38.5453 17.8504 38.5545 18.2252L38.5645 18.601L37.1135 18.6096C37.1135 18.6096 37.4219 17.4214 37.4511 17.4224C37.4814 17.4228 38.9361 16.5519 38.9361 16.5519L38.9368 16.553Z" fill="#6B7B3E"/>
<path id="Vector_54" d="M38.9364 16.5529C37.8751 16.7657 36.9855 16.68 36.9855 16.68L37.1128 18.6113L38.9364 16.5529Z" fill="#4B5B19"/>
</g>
<g id="Group_27">
<path id="Vector_55" d="M38.0726 18.354C38.0726 18.354 37.6811 19.6514 37.6893 20.0269L37.6992 20.4028L36.2483 20.4114C36.2483 20.4114 36.5566 19.2231 36.5859 19.2242C36.6161 19.2246 38.0709 18.3537 38.0709 18.3537L38.0726 18.354Z" fill="#6B7B3E"/>
<path id="Vector_56" d="M38.0731 18.3542C37.0118 18.567 36.1222 18.4813 36.1222 18.4813L36.2495 20.4126L38.0731 18.3542Z" fill="#4B5B19"/>
</g>
<g id="Group_28">
<path id="Vector_57" d="M38.2503 20.1431C38.2503 20.1431 37.8588 21.4405 37.867 21.816L37.877 22.1918L36.426 22.2005C36.426 22.2005 36.7343 21.0122 36.7636 21.0133C36.7939 21.0137 38.2486 20.1428 38.2486 20.1428L38.2503 20.1431Z" fill="#6B7B3E"/>
<path id="Vector_58" d="M38.2508 20.1432C37.1895 20.356 36.2999 20.2704 36.2999 20.2704L36.4272 22.2016L38.2508 20.1432Z" fill="#4B5B19"/>
</g>
<g id="Group_29">
<path id="Vector_59" d="M38.5784 21.709C38.5784 21.709 38.1869 23.0064 38.1951 23.3819L38.2051 23.7577L36.7541 23.7664C36.7541 23.7664 37.0625 22.5781 37.0927 22.5785C37.123 22.5789 38.5777 21.708 38.5777 21.708L38.5784 21.709Z" fill="#6B7B3E"/>
<path id="Vector_60" d="M38.579 21.7092C37.5176 21.922 36.6281 21.8363 36.6281 21.8363L36.7553 23.7676L38.579 21.7092Z" fill="#4B5B19"/>
</g>
<g id="Group_30">
<path id="Vector_61" d="M37.2952 16.5098C37.2952 16.5098 36.9037 17.8072 36.912 18.1827L36.9219 18.5585L35.4709 18.5672C35.4709 18.5672 35.7793 17.3789 35.8096 17.3793C35.8398 17.3797 37.2945 16.5088 37.2945 16.5088L37.2952 16.5098Z" fill="#6B7B3E"/>
<path id="Vector_62" d="M37.2958 16.5099C36.2344 16.7228 35.3449 16.637 35.3449 16.637L35.4721 18.5683L37.2958 16.5099Z" fill="#4B5B19"/>
</g>
<g id="Group_31">
<path id="Vector_63" d="M36.1488 14.9575C36.1488 14.9575 35.7572 16.255 35.7654 16.6305L35.7754 17.0063L34.3244 17.0149C34.3244 17.0149 34.6328 15.8267 34.663 15.827C34.6933 15.8274 36.1481 14.9565 36.1481 14.9565L36.1488 14.9575Z" fill="#6B7B3E"/>
<path id="Vector_64" d="M36.1493 14.9577C35.088 15.1705 34.1984 15.0848 34.1984 15.0848L34.3257 17.0161L36.1493 14.9577Z" fill="#4B5B19"/>
</g>
<g id="Group_32">
<path id="Vector_65" d="M37.947 14.9592C37.947 14.9592 37.3072 16.1542 37.2431 16.5249L37.1784 16.8946L35.7538 16.6181C35.7538 16.6181 36.2889 15.5139 36.3189 15.5205C36.3489 15.5271 37.947 14.9592 37.947 14.9592Z" fill="#6B7B3E"/>
<path id="Vector_66" d="M37.9465 14.9592C36.8638 14.96 36.0082 14.6996 36.0082 14.6996L35.7533 16.6181L37.9465 14.9592Z" fill="#4B5B19"/>
</g>
<g id="Group_33">
<path id="Vector_67" d="M36.6331 13.0697C36.6331 13.0697 36.2864 14.3801 36.3091 14.7548L36.3317 15.1294L34.8817 15.19C34.8817 15.19 35.1472 13.9918 35.1785 13.9915C35.2088 13.9919 36.6331 13.0697 36.6331 13.0697Z" fill="#6B7B3E"/>
<path id="Vector_68" d="M36.6333 13.0701C35.581 13.3203 34.6882 13.2653 34.6882 13.2653L34.8836 15.1907L36.6333 13.0701Z" fill="#4B5B19"/>
</g>
<g id="Group_34">
<path id="Vector_69" d="M34.6407 11.3036C34.6407 11.3036 34.6371 12.6595 34.7541 13.0163L34.8712 13.3732L33.4832 13.798C33.4832 13.798 33.4372 12.572 33.4674 12.5635C33.4966 12.5556 34.6407 11.3036 34.6407 11.3036Z" fill="#6B7B3E"/>
<path id="Vector_70" d="M34.6409 11.3038C33.6851 11.8124 32.808 11.9852 32.808 11.9852L33.4834 13.7982L34.6409 11.3038Z" fill="#4B5B19"/>
</g>
<g id="Group_35">
<path id="Vector_71" d="M33.1965 10.5361C33.1965 10.5361 32.9967 11.8771 33.0612 12.2472L33.1258 12.6173L31.691 12.8369C31.691 12.8369 31.8233 11.6171 31.8536 11.613C31.8838 11.6089 33.1965 10.5361 33.1965 10.5361Z" fill="#6B7B3E"/>
<path id="Vector_72" d="M33.1965 10.5361C32.1777 10.9015 31.2843 10.9445 31.2843 10.9445L31.6911 12.8369L33.1965 10.5361Z" fill="#4B5B19"/>
</g>
<g id="Group_36">
<path id="Vector_73" d="M31.0975 9.46478C31.0975 9.46478 31.2127 10.8146 31.3603 11.1612L31.5082 11.506L30.1634 12.0515C30.1634 12.0515 30.0106 10.8338 30.0393 10.8232C30.0681 10.8126 31.0975 9.46478 31.0975 9.46478Z" fill="#6B7B3E"/>
<path id="Vector_74" d="M31.0994 9.46495C30.1921 10.0559 29.3337 10.3046 29.3337 10.3046L30.1663 12.051L31.1004 9.46425L31.0994 9.46495Z" fill="#4B5B19"/>
</g>
<g id="Group_37">
<path id="Vector_75" d="M41.7529 37.7701C41.7529 37.7701 40.4066 37.928 40.066 38.0865L39.7254 38.245L39.1381 36.9181C39.1381 36.9181 40.3506 36.7268 40.3623 36.7549C40.3739 36.783 41.7529 37.7701 41.7529 37.7701Z" fill="#6B7B3E"/>
<path id="Vector_76" d="M41.7535 37.7699C41.1348 36.8815 40.8588 36.0313 40.8588 36.0313L39.1387 36.918L41.7535 37.7699Z" fill="#4B5B19"/>
</g>
<g id="Group_38">
<path id="Vector_77" d="M42.3695 35.3409C42.3695 35.3409 41.0955 35.8052 40.8013 36.0385L40.5065 36.2709L39.6289 35.1147C39.6289 35.1147 40.764 34.6491 40.7818 34.673C40.7993 34.6986 42.3699 35.3392 42.3699 35.3392L42.3695 35.3409Z" fill="#6B7B3E"/>
<path id="Vector_78" d="M42.3705 35.3409C41.564 34.6195 41.0993 33.8557 41.0993 33.8557L39.6305 35.1158L42.3705 35.3409Z" fill="#4B5B19"/>
</g>
<g id="Group_39">
<path id="Vector_79" d="M42.7469 32.8298C42.7469 32.8298 41.6324 33.601 41.406 33.9008L41.1796 34.2005L40.0384 33.305C40.0384 33.305 41.0192 32.5664 41.0421 32.5868C41.066 32.6065 42.7469 32.8298 42.7469 32.8298Z" fill="#6B7B3E"/>
<path id="Vector_80" d="M42.7479 32.8297C41.7848 32.3365 41.1416 31.7138 41.1416 31.7138L40.0394 33.3049L42.7479 32.8297Z" fill="#4B5B19"/>
</g>
<g id="Group_40">
<path id="Vector_81" d="M42.8454 30.8584C42.8454 30.8584 41.6013 31.3953 41.32 31.6454L41.0388 31.8955L40.0957 30.793C40.0957 30.793 41.2023 30.2612 41.2208 30.2861C41.2396 30.3093 42.844 30.8608 42.844 30.8608L42.8454 30.8584Z" fill="#6B7B3E"/>
<path id="Vector_82" d="M42.8463 30.8586C41.9994 30.1857 41.4903 29.4493 41.4903 29.4493L40.097 30.7915L42.8456 30.8576L42.8463 30.8586Z" fill="#4B5B19"/>
</g>
<g id="Group_41">
<path id="Vector_83" d="M41.2448 30.3977C41.2448 30.3977 40.0006 30.9346 39.7194 31.1847L39.4392 31.4341L38.4961 30.3315C38.4961 30.3315 39.6027 29.7998 39.6212 29.8247C39.64 29.8479 41.2444 30.3994 41.2444 30.3994L41.2448 30.3977Z" fill="#6B7B3E"/>
<path id="Vector_84" d="M41.2448 30.3977C40.3971 29.7238 39.8887 28.9883 39.8887 28.9883L38.4954 30.3305L41.2448 30.3977Z" fill="#4B5B19"/>
</g>
<g id="Group_42">
<path id="Vector_85" d="M39.9235 28.9848C39.9235 28.9848 38.6794 29.5218 38.3981 29.7719L38.1169 30.022L37.1738 28.9194C37.1738 28.9194 38.2805 28.3877 38.2989 28.4126C38.3177 28.4358 39.9222 28.9873 39.9222 28.9873L39.9235 28.9848Z" fill="#6B7B3E"/>
<path id="Vector_86" d="M39.9245 28.9851C39.0775 28.3122 38.5684 27.5757 38.5684 27.5757L37.1751 28.9179L39.9238 28.984L39.9245 28.9851Z" fill="#4B5B19"/>
</g>
<g id="Group_43">
<path id="Vector_87" d="M41.695 32.1665C41.695 32.1665 40.4508 32.7034 40.1696 32.9535L39.8883 33.2036L38.9453 32.1011C38.9453 32.1011 40.0519 31.5693 40.0704 31.5943C40.0889 31.6192 41.6936 32.1689 41.6936 32.1689L41.695 32.1665Z" fill="#6B7B3E"/>
<path id="Vector_88" d="M41.6949 32.1664C40.8479 31.4936 40.3398 30.7564 40.3398 30.7564L38.9466 32.0986L41.6952 32.1647L41.6949 32.1664Z" fill="#4B5B19"/>
</g>
<g id="Group_44">
<path id="Vector_89" d="M41.1569 34.3186C41.1569 34.3186 39.9127 34.8555 39.6315 35.1056L39.3513 35.355L38.4082 34.2524C38.4082 34.2524 39.5148 33.7207 39.5333 33.7456C39.5521 33.7688 41.1566 34.3203 41.1566 34.3203L41.1569 34.3186Z" fill="#6B7B3E"/>
<path id="Vector_90" d="M41.1578 34.3188C40.3102 33.6449 39.8027 32.9088 39.8027 32.9088L38.4095 34.2509L41.1588 34.3181L41.1578 34.3188Z" fill="#4B5B19"/>
</g>
<g id="Group_45">
<path id="Vector_91" d="M40.8552 36.313C40.8552 36.313 39.611 36.8499 39.3298 37.1L39.0485 37.3501L38.1055 36.2476C38.1055 36.2476 39.2121 35.7158 39.2306 35.7407C39.2494 35.7639 40.8538 36.3154 40.8538 36.3154L40.8552 36.313Z" fill="#6B7B3E"/>
<path id="Vector_92" d="M40.8551 36.3129C40.0081 35.64 39.5 34.9029 39.5 34.9029L38.1067 36.2451L40.8554 36.3112L40.8551 36.3129Z" fill="#4B5B19"/>
</g>
<g id="Group_46">
<path id="Vector_93" d="M42.6649 28.6489C42.6649 28.6489 41.5779 29.4583 41.3626 29.7655L41.1472 30.0728L39.9752 29.2178C39.9752 29.2178 40.9295 28.4447 40.9534 28.4644C40.9766 28.4831 42.6659 28.6482 42.6659 28.6482L42.6649 28.6489Z" fill="#6B7B3E"/>
<path id="Vector_94" d="M42.6644 28.649C41.6851 28.1894 41.0205 27.5903 41.0205 27.5903L39.9747 29.2179L42.6654 28.6483L42.6644 28.649Z" fill="#4B5B19"/>
</g>
<g id="Group_47">
<path id="Vector_95" d="M42.5414 26.5826C42.5414 26.5826 41.6945 27.6411 41.5636 27.9928L41.4326 28.3446L40.0822 27.8137C40.0822 27.8137 40.8104 26.8255 40.8384 26.8379C40.8664 26.8504 42.5414 26.5826 42.5414 26.5826Z" fill="#6B7B3E"/>
<path id="Vector_96" d="M42.5414 26.5827C41.4774 26.3863 40.6836 25.9743 40.6836 25.9743L40.0839 27.8141L42.5432 26.583L42.5414 26.5827Z" fill="#4B5B19"/>
</g>
<g id="Group_48">
<path id="Vector_97" d="M41.9768 25.0184C41.9768 25.0184 40.9865 25.9435 40.8055 26.2724L40.6251 26.6023L39.366 25.8816C39.366 25.8816 40.2285 25.0091 40.2548 25.0256C40.2804 25.0412 41.9768 25.0184 41.9768 25.0184Z" fill="#6B7B3E"/>
<path id="Vector_98" d="M41.9768 25.0185C40.9515 24.6696 40.2258 24.1482 40.2258 24.1482L39.3661 25.8817L41.9768 25.0185Z" fill="#4B5B19"/>
</g>
<g id="Group_49">
<path id="Vector_99" d="M41.2421 22.7418C41.2421 22.7418 40.4909 23.8701 40.3927 24.2326L40.2928 24.5947L38.9016 24.1845C38.9016 24.1845 39.5395 23.1364 39.5681 23.1454C39.5974 23.1554 41.2421 22.7418 41.2421 22.7418Z" fill="#6B7B3E"/>
<path id="Vector_100" d="M41.2419 22.7417C40.1647 22.6382 39.3376 22.2984 39.3376 22.2984L38.9014 24.1844L41.2419 22.7417Z" fill="#4B5B19"/>
</g>
<g id="Group_50">
<path id="Vector_101" d="M40.2599 39.9995C40.2599 39.9995 38.922 39.7841 38.5511 39.8432L38.1803 39.9022L37.9771 38.4653C37.9771 38.4653 39.1961 38.6116 39.1984 38.6415C39.2015 38.6725 40.2603 39.9977 40.2603 39.9977L40.2599 39.9995Z" fill="#6B7B3E"/>
<path id="Vector_102" d="M40.2597 39.9993C39.9066 38.9765 39.8736 38.0823 39.8736 38.0823L37.9766 38.4668L40.2597 39.9993Z" fill="#4B5B19"/>
</g>
<g id="Group_51">
<g id="Group_52">
<path id="Vector_103" d="M40.2164 23.0997C40.2164 23.0997 39.1653 23.9552 38.9625 24.2719L38.7596 24.5886L37.5523 23.7832C37.5523 23.7832 38.4728 22.9716 38.4981 22.9889C38.5233 23.0062 40.2164 23.0997 40.2164 23.0997Z" fill="#6B7B3E"/>
<path id="Vector_104" d="M40.2175 23.1001C39.2186 22.6822 38.5299 22.1116 38.5299 22.1116L37.5544 23.7829L40.2175 23.1001Z" fill="#4B5B19"/>
</g>
<g id="Group_53">
<path id="Vector_105" d="M39.6375 20.7778C39.6375 20.7778 38.8117 21.8519 38.688 22.2078L38.5636 22.5625L37.2028 22.0582C37.2028 22.0582 37.9106 21.0554 37.9396 21.0672C37.9679 21.0779 39.6364 20.7785 39.6364 20.7785L39.6375 20.7778Z" fill="#6B7B3E"/>
<path id="Vector_106" d="M39.6378 20.7778C38.5699 20.6021 37.7677 20.2063 37.7677 20.2063L37.2042 22.0575L39.6378 20.7778Z" fill="#4B5B19"/>
</g>
<g id="Group_54">
<path id="Vector_107" d="M39.2963 39.9632C39.2963 39.9632 37.9407 39.9774 37.5856 40.0993L37.2305 40.2211L36.7875 38.8395C36.7875 38.8395 38.013 38.7774 38.0219 38.8059C38.0297 38.835 39.2974 39.9625 39.2974 39.9625L39.2963 39.9632Z" fill="#6B7B3E"/>
<path id="Vector_108" d="M39.2967 39.9631C38.7751 39.0146 38.5913 38.139 38.5913 38.139L36.7871 38.8384L39.297 39.9614L39.2967 39.9631Z" fill="#4B5B19"/>
</g>
<g id="Group_55">
<path id="Vector_109" d="M40.1691 37.6134C40.1691 37.6134 38.8541 37.9405 38.5359 38.1408L38.2177 38.341L37.4679 37.0994C37.4679 37.0994 38.6459 36.7561 38.6606 36.782C38.6753 36.808 40.1691 37.6134 40.1691 37.6134Z" fill="#6B7B3E"/>
<path id="Vector_110" d="M40.1697 37.6131C39.4428 36.8104 39.0626 36.0011 39.0626 36.0011L37.4685 37.099L40.1697 37.6131Z" fill="#4B5B19"/>
</g>
<g id="Group_56">
<path id="Vector_111" d="M40.8089 35.1568C40.8089 35.1568 39.6185 35.8056 39.3622 36.0792L39.105 36.3534L38.0645 35.3413C38.0645 35.3413 39.1175 34.711 39.1383 34.7328C39.1592 34.7546 40.8082 35.1557 40.8082 35.1557L40.8089 35.1568Z" fill="#6B7B3E"/>
<path id="Vector_112" d="M40.8095 35.1566C39.9046 34.5637 39.3306 33.8775 39.3306 33.8775L38.0658 35.3422L40.8095 35.1566Z" fill="#4B5B19"/>
</g>
<g id="Group_57">
<path id="Vector_113" d="M41.1503 33.4262C41.1503 33.4262 39.8567 33.8287 39.5503 34.0464L39.2447 34.2651L38.4238 33.0688C38.4238 33.0688 39.5798 32.658 39.5973 32.6836C39.6147 32.7092 41.1503 33.4262 41.1503 33.4262Z" fill="#6B7B3E"/>
<path id="Vector_114" d="M41.1504 33.426C40.3796 32.6667 39.9522 31.8806 39.9522 31.8806L38.4239 33.0687L41.1504 33.426Z" fill="#4B5B19"/>
</g>
<g id="Group_58">
<path id="Vector_115" d="M41.2059 31.2094C41.2059 31.2094 40.0397 31.9003 39.7925 32.1827L39.5459 32.4662L38.4707 31.4912C38.4707 31.4912 39.5013 30.8237 39.5232 30.8448C39.5451 30.8659 41.2069 31.2087 41.2069 31.2087L41.2059 31.2094Z" fill="#6B7B3E"/>
<path id="Vector_116" d="M41.2052 31.2094C40.2799 30.6484 39.6824 29.9826 39.6824 29.9826L38.47 31.4912L41.2052 31.2094Z" fill="#4B5B19"/>
</g>
<g id="Group_59">
<path id="Vector_117" d="M41.2644 28.9218C41.2644 28.9218 40.31 29.884 40.1435 30.221L39.9762 30.557L38.6898 29.8865C38.6898 29.8865 39.5175 28.9806 39.5441 28.9954C39.5708 29.0103 41.2644 28.9218 41.2644 28.9218Z" fill="#6B7B3E"/>
<path id="Vector_118" d="M41.2649 28.922C40.2276 28.6129 39.4811 28.1206 39.4811 28.1206L38.6895 29.8856L41.2649 28.922Z" fill="#4B5B19"/>
</g>
<g id="Group_60">
<path id="Vector_119" d="M40.8713 27.3077C40.8713 27.3077 39.7878 28.1223 39.5738 28.4316L39.3592 28.7398L38.1834 27.8903C38.1834 27.8903 39.1339 27.1139 39.1581 27.1319C39.1824 27.1499 40.8713 27.3077 40.8713 27.3077Z" fill="#6B7B3E"/>
<path id="Vector_120" d="M40.8705 27.3075C39.8885 26.8527 39.2216 26.2567 39.2216 26.2567L38.1827 27.8901L40.8695 27.3082L40.8705 27.3075Z" fill="#4B5B19"/>
</g>
<g id="Group_61">
<path id="Vector_121" d="M40.3788 24.9644C40.3788 24.9644 39.5135 26.0069 39.3757 26.3573L39.2388 26.7071L37.8985 26.1513C37.8985 26.1513 38.6447 25.1763 38.6717 25.1895C38.6996 25.2019 40.3795 24.9654 40.3795 24.9654L40.3788 24.9644Z" fill="#6B7B3E"/>
<path id="Vector_122" d="M40.3783 24.9645C39.3171 24.7481 38.5311 24.3233 38.5311 24.3233L37.898 26.1514L40.3783 24.9645Z" fill="#4B5B19"/>
</g>
<g id="Group_62">
<path id="Vector_123" d="M37.5783 42.0216C37.5783 42.0216 36.2706 41.6656 35.8955 41.6855L35.5205 41.7055L35.4706 40.2556C35.4706 40.2556 36.6671 40.5298 36.6667 40.5601C36.6664 40.5903 37.5776 42.0206 37.5776 42.0206L37.5783 42.0216Z" fill="#6B7B3E"/>
<path id="Vector_124" d="M37.5784 42.0214C37.3357 40.9669 37.397 40.0745 37.397 40.0745L35.4707 40.2554L37.5784 42.0214Z" fill="#4B5B19"/>
</g>
</g>
<g id="Group_63">
<g id="Group_64">
<path id="Vector_125" d="M37.6145 20.0495C37.6145 20.0495 36.6677 21.0185 36.5018 21.3565L36.337 21.6938L35.0462 21.0323C35.0462 21.0323 35.868 20.1199 35.8947 20.1348C35.9213 20.1496 37.6138 20.0485 37.6138 20.0485L37.6145 20.0495Z" fill="#6B7B3E"/>
<path id="Vector_126" d="M37.6144 20.0493C36.5747 19.7478 35.8246 19.261 35.8246 19.261L35.0461 21.0321L37.6144 20.0493Z" fill="#4B5B19"/>
</g>
<g id="Group_65">
<path id="Vector_127" d="M36.7711 17.8086C36.7711 17.8086 36.0743 18.9705 35.9912 19.3376L35.9092 19.704L34.5005 19.3583C34.5005 19.3583 35.0903 18.2814 35.1189 18.2904C35.1486 18.2987 36.7718 17.8096 36.7718 17.8096L36.7711 17.8086Z" fill="#6B7B3E"/>
<path id="Vector_128" d="M36.7719 17.8084C35.6914 17.7552 34.8488 17.4544 34.8488 17.4544L34.4995 19.3578L36.7726 17.8094L36.7719 17.8084Z" fill="#4B5B19"/>
</g>
<g id="Group_66">
<path id="Vector_129" d="M38.6286 36.9076C38.6286 36.9076 37.2838 37.0765 36.9442 37.2388L36.6057 37.4004L36.0068 36.0784C36.0068 36.0784 37.2178 35.8762 37.2294 35.9042C37.2411 35.9323 38.6286 36.9076 38.6286 36.9076Z" fill="#6B7B3E"/>
<path id="Vector_130" d="M38.6284 36.9079C38.0015 36.0251 37.7189 35.1763 37.7189 35.1763L36.0059 36.0776L38.6277 36.9068L38.6284 36.9079Z" fill="#4B5B19"/>
</g>
<g id="Group_67">
<path id="Vector_131" d="M39.2249 34.4749C39.2249 34.4749 37.955 34.9498 37.6623 35.1852L37.3695 35.4206L36.4824 34.2725C36.4824 34.2725 37.6133 33.7962 37.6318 33.8211C37.6493 33.8467 39.2249 34.4749 39.2249 34.4749Z" fill="#6B7B3E"/>
<path id="Vector_132" d="M39.2258 34.475C38.4125 33.7612 37.941 33.0007 37.941 33.0007L36.4834 34.2726L39.2258 34.475Z" fill="#4B5B19"/>
</g>
<g id="Group_68">
<path id="Vector_133" d="M39.581 31.96C39.581 31.96 38.4727 32.7404 38.2494 33.0425L38.0261 33.3447L36.8778 32.4585C36.8778 32.4585 37.852 31.7124 37.8752 31.7311C37.8991 31.7508 39.5817 31.961 39.5817 31.961L39.581 31.96Z" fill="#6B7B3E"/>
<path id="Vector_134" d="M39.5817 31.9598C38.6145 31.4739 37.9666 30.8575 37.9666 30.8575L36.8778 32.4573L39.5817 31.9598Z" fill="#4B5B19"/>
</g>
<g id="Group_69">
<path id="Vector_135" d="M39.7228 30.2023C39.7228 30.2023 38.4829 30.7498 38.2041 31.0013L37.9252 31.2527L36.9727 30.1582C36.9727 30.1582 38.0747 29.6176 38.0942 29.6418C38.113 29.665 39.7228 30.2023 39.7228 30.2023Z" fill="#6B7B3E"/>
<path id="Vector_136" d="M39.7227 30.2023C38.87 29.5364 38.3554 28.8052 38.3554 28.8052L36.9732 30.1593L39.7227 30.2023Z" fill="#4B5B19"/>
</g>
<g id="Group_70">
<path id="Vector_137" d="M39.5199 27.9938C39.5199 27.9938 38.4399 28.8135 38.227 29.122L38.0137 29.4323L36.8346 28.5867C36.8346 28.5867 37.7822 27.8061 37.8054 27.8248C37.8287 27.8435 39.5189 27.9945 39.5189 27.9945L39.5199 27.9938Z" fill="#6B7B3E"/>
<path id="Vector_138" d="M39.5207 27.9938C38.537 27.5431 37.8669 26.9493 37.8669 26.9493L36.8353 28.5867L39.5207 27.9938Z" fill="#4B5B19"/>
</g>
<g id="Group_71">
<path id="Vector_139" d="M39.3219 25.7133C39.3219 25.7133 38.4844 26.7789 38.3559 27.132L38.2273 27.4851L36.8729 26.9659C36.8729 26.9659 37.5925 25.9716 37.6204 25.9841C37.6484 25.9965 39.3209 25.714 39.3209 25.714L39.3219 25.7133Z" fill="#6B7B3E"/>
<path id="Vector_140" d="M39.3221 25.7136C38.2565 25.5257 37.4586 25.121 37.4586 25.121L36.8741 26.9655L39.3221 25.7136Z" fill="#4B5B19"/>
</g>
<g id="Group_72">
<path id="Vector_141" d="M38.746 24.1547C38.746 24.1547 37.7631 25.0883 37.5851 25.4196L37.4072 25.7508L36.1416 25.0405C36.1416 25.0405 36.9975 24.1605 37.0231 24.176C37.0487 24.1916 38.745 24.1554 38.745 24.1554L38.746 24.1547Z" fill="#6B7B3E"/>
<path id="Vector_142" d="M38.7473 24.1548C37.7204 23.8146 36.9892 23.2984 36.9892 23.2984L36.144 25.0399L38.7473 24.1548Z" fill="#4B5B19"/>
</g>
<g id="Group_73">
<path id="Vector_143" d="M37.9894 21.8836C37.9894 21.8836 37.2485 23.0185 37.1521 23.3812L37.0556 23.744L35.6604 23.3456C35.6604 23.3456 36.2896 22.2913 36.319 22.3013C36.3476 22.3103 37.9894 21.8836 37.9894 21.8836Z" fill="#6B7B3E"/>
<path id="Vector_144" d="M37.9886 21.8836C36.9105 21.7898 36.0803 21.4565 36.0803 21.4565L35.6596 23.3455L37.9886 21.8836Z" fill="#4B5B19"/>
</g>
<g id="Group_74">
<path id="Vector_145" d="M37.1542 39.1495C37.1542 39.1495 35.815 38.9455 35.4435 39.0081L35.0737 39.0709L34.8585 37.6361C34.8585 37.6361 36.0784 37.7728 36.0818 37.802C36.0859 37.8323 37.1542 39.1495 37.1542 39.1495Z" fill="#6B7B3E"/>
<path id="Vector_146" d="M37.1542 39.1495C36.7925 38.1295 36.7512 37.2364 36.7512 37.2364L34.8574 37.6367L37.1531 39.1502L37.1542 39.1495Z" fill="#4B5B19"/>
</g>
</g>
<g id="Group_75">
<path id="Vector_147" d="M36.4622 19.3161C36.4622 19.3161 35.5153 20.2851 35.3495 20.6231L35.1847 20.9604L33.8938 20.2989C33.8938 20.2989 34.7157 19.3865 34.7423 19.4014C34.7689 19.4162 36.4615 19.3151 36.4615 19.3151L36.4622 19.3161Z" fill="#6B7B3E"/>
<path id="Vector_148" d="M36.462 19.3159C35.4224 19.0143 34.6723 18.5276 34.6723 18.5276L33.8937 20.2987L36.462 19.3159Z" fill="#4B5B19"/>
</g>
<g id="Group_76">
<path id="Vector_149" d="M35.6208 17.0762C35.6208 17.0762 34.9239 18.2381 34.8408 18.6052L34.7589 18.9716L33.3501 18.6259C33.3501 18.6259 33.9399 17.549 33.9685 17.558C33.9982 17.5663 35.6215 17.0772 35.6215 17.0772L35.6208 17.0762Z" fill="#6B7B3E"/>
<path id="Vector_150" d="M35.6215 17.076C34.541 17.0228 33.6985 16.722 33.6985 16.722L33.3491 18.6254L35.6222 17.077L35.6215 17.076Z" fill="#4B5B19"/>
</g>
<g id="Group_77">
<path id="Vector_151" d="M37.4762 36.1738C37.4762 36.1738 36.1314 36.3426 35.7919 36.5049L35.4533 36.6665L34.8544 35.3445C34.8544 35.3445 36.0655 35.1423 36.0771 35.1704C36.0887 35.1984 37.4762 36.1738 37.4762 36.1738Z" fill="#6B7B3E"/>
<path id="Vector_152" d="M37.476 36.174C36.8492 35.2912 36.5666 34.4424 36.5666 34.4424L34.8535 35.3438L37.4753 36.173L37.476 36.174Z" fill="#4B5B19"/>
</g>
<g id="Group_78">
<path id="Vector_153" d="M38.0726 33.7405C38.0726 33.7405 36.8027 34.2154 36.5099 34.4508L36.2172 34.6862L35.3301 33.5381C35.3301 33.5381 36.461 33.0618 36.4795 33.0867C36.4969 33.1124 38.0726 33.7405 38.0726 33.7405Z" fill="#6B7B3E"/>
<path id="Vector_154" d="M38.0735 33.7407C37.2602 33.0269 36.7886 32.2663 36.7886 32.2663L35.331 33.5383L38.0735 33.7407Z" fill="#4B5B19"/>
</g>
<g id="Group_79">
<path id="Vector_155" d="M38.4286 31.2266C38.4286 31.2266 37.3204 32.007 37.0971 32.3092L36.8738 32.6113L35.7255 31.7251C35.7255 31.7251 36.6996 30.979 36.7228 30.9977C36.7468 31.0174 38.4293 31.2276 38.4293 31.2276L38.4286 31.2266Z" fill="#6B7B3E"/>
<path id="Vector_156" d="M38.4293 31.2264C37.4621 30.7405 36.8142 30.1241 36.8142 30.1241L35.7255 31.7239L38.4293 31.2264Z" fill="#4B5B19"/>
</g>
<g id="Group_80">
<path id="Vector_157" d="M38.5705 29.4689C38.5705 29.4689 37.3306 30.0164 37.0518 30.2679L36.7729 30.5193L35.8203 29.4248C35.8203 29.4248 36.9224 28.8842 36.9419 28.9084C36.9607 28.9316 38.5705 29.4689 38.5705 29.4689Z" fill="#6B7B3E"/>
<path id="Vector_158" d="M38.5704 29.4689C37.7177 28.803 37.2031 28.0718 37.2031 28.0718L35.8209 29.4259L38.5704 29.4689Z" fill="#4B5B19"/>
</g>
<g id="Group_81">
<path id="Vector_159" d="M38.3695 27.2609C38.3695 27.2609 37.2895 28.0806 37.0766 28.3891L36.8633 28.6994L35.6842 27.8538C35.6842 27.8538 36.6318 27.0732 36.6551 27.0919C36.6793 27.1099 38.3685 27.2616 38.3685 27.2616L38.3695 27.2609Z" fill="#6B7B3E"/>
<path id="Vector_160" d="M38.3703 27.2609C37.3866 26.8102 36.7165 26.2164 36.7165 26.2164L35.6849 27.8538L38.3703 27.2609Z" fill="#4B5B19"/>
</g>
<g id="Group_82">
<path id="Vector_161" d="M37.3017 32.5303C37.3017 32.5303 36.1934 33.3107 35.9701 33.6128L35.7468 33.915L34.5985 33.0288C34.5985 33.0288 35.5727 32.2827 35.5959 32.3014C35.6198 32.3211 37.3024 32.5313 37.3024 32.5313L37.3017 32.5303Z" fill="#6B7B3E"/>
<path id="Vector_162" d="M37.3024 32.5301C36.3352 32.0442 35.6873 31.4278 35.6873 31.4278L34.5985 33.0276L37.3024 32.5301Z" fill="#4B5B19"/>
</g>
<g id="Group_83">
<path id="Vector_163" d="M35.8153 34.1026C35.8153 34.1026 34.7071 34.883 34.4838 35.1851L34.2605 35.4873L33.1122 34.6011C33.1122 34.6011 34.0863 33.855 34.1096 33.8737C34.1335 33.8934 35.816 34.1036 35.816 34.1036L35.8153 34.1026Z" fill="#6B7B3E"/>
<path id="Vector_164" d="M35.816 34.1024C34.8488 33.6165 34.2009 33.0001 34.2009 33.0001L33.1122 34.5999L35.816 34.1024Z" fill="#4B5B19"/>
</g>
<g id="Group_84">
<path id="Vector_165" d="M37.4435 30.7726C37.4435 30.7726 36.2036 31.3201 35.9248 31.5716L35.646 31.823L34.6934 30.7285C34.6934 30.7285 35.7954 30.1879 35.8149 30.2121C35.8337 30.2353 37.4435 30.7726 37.4435 30.7726Z" fill="#6B7B3E"/>
<path id="Vector_166" d="M37.4434 30.7726C36.5907 30.1067 36.0761 29.3755 36.0761 29.3755L34.6939 30.7296L37.4434 30.7726Z" fill="#4B5B19"/>
</g>
<g id="Group_85">
<path id="Vector_167" d="M37.2426 28.5651C37.2426 28.5651 36.1626 29.3848 35.9496 29.6933L35.7364 30.0036L34.5572 29.158C34.5572 29.158 35.5049 28.3774 35.5281 28.3961C35.5513 28.4148 37.2415 28.5658 37.2415 28.5658L37.2426 28.5651Z" fill="#6B7B3E"/>
<path id="Vector_168" d="M37.2433 28.5651C36.2596 28.1144 35.5896 27.5206 35.5896 27.5206L34.5573 29.157L37.2426 28.5641L37.2433 28.5651Z" fill="#4B5B19"/>
</g>
<g id="Group_86">
<path id="Vector_169" d="M38.1683 24.9809C38.1683 24.9809 37.3308 26.0465 37.2023 26.3996L37.0737 26.7527L35.7186 26.2325C35.7186 26.2325 36.4382 25.2382 36.4661 25.2507C36.4941 25.2631 38.1666 24.9806 38.1666 24.9806L38.1683 24.9809Z" fill="#6B7B3E"/>
<path id="Vector_170" d="M38.1698 24.9811C37.1041 24.7933 36.3063 24.3886 36.3063 24.3886L35.7218 26.2331L38.1698 24.9811Z" fill="#4B5B19"/>
</g>
<g id="Group_87">
<path id="Vector_171" d="M37.5946 23.4225C37.5946 23.4225 36.6116 24.3561 36.4347 24.6867L36.2568 25.0179L34.9912 24.3076C34.9912 24.3076 35.8471 23.4276 35.8727 23.4431C35.8983 23.4587 37.5946 23.4225 37.5946 23.4225Z" fill="#6B7B3E"/>
<path id="Vector_172" d="M37.595 23.4224C36.568 23.0822 35.8368 22.566 35.8368 22.566L34.9916 24.3075L37.595 23.4224Z" fill="#4B5B19"/>
</g>
<g id="Group_88">
<path id="Vector_173" d="M36.839 21.1517C36.839 21.1517 36.0981 22.2865 36.0017 22.6493L35.9052 23.0121L34.5101 22.6136C34.5101 22.6136 35.1392 21.5594 35.1686 21.5694C35.1972 21.5784 36.839 21.1517 36.839 21.1517Z" fill="#6B7B3E"/>
<path id="Vector_174" d="M36.8382 21.1517C35.7601 21.0579 34.9299 20.7246 34.9299 20.7246L34.5092 22.6136L36.8382 21.1517Z" fill="#4B5B19"/>
</g>
<g id="Group_89">
<path id="Vector_175" d="M36.0038 38.4171C36.0038 38.4171 34.6646 38.2131 34.2931 38.2756L33.9233 38.3385L33.7081 36.9037C33.7081 36.9037 34.928 37.0404 34.9314 37.0696C34.9355 37.0999 36.0038 38.4171 36.0038 38.4171Z" fill="#6B7B3E"/>
<path id="Vector_176" d="M36.0047 38.4172C35.643 37.3973 35.6028 36.5035 35.6028 36.5035L33.709 36.9038L36.0047 38.4172Z" fill="#4B5B19"/>
</g>
<g id="Group_90">
<path id="Vector_177" d="M24.9863 48.3467C24.9863 48.3467 24.268 47.1975 23.9798 46.9573L23.6906 46.7177L24.6396 45.6196C24.6396 45.6196 25.3306 46.6342 25.3106 46.6554C25.2895 46.6773 24.988 48.347 24.988 48.347L24.9863 48.3467Z" fill="#6B7B3E"/>
<path id="Vector_178" d="M24.9872 48.3466C25.5257 47.4081 26.1765 46.7953 26.1765 46.7953L24.6394 45.6203L24.9868 48.3483L24.9872 48.3466Z" fill="#4B5B19"/>
</g>
<g id="Group_91">
<path id="Vector_179" d="M27.357 48.4115C27.357 48.4115 26.3928 47.4585 26.0558 47.2919L25.7188 47.1254L26.3886 45.8379C26.3886 45.8379 27.2956 46.6649 27.2807 46.6916C27.2659 46.7182 27.357 48.4115 27.357 48.4115Z" fill="#6B7B3E"/>
<path id="Vector_180" d="M27.3579 48.4116C27.6653 47.374 28.1569 46.6266 28.1569 46.6266L26.3905 45.8373L27.3589 48.4109L27.3579 48.4116Z" fill="#4B5B19"/>
</g>
<g id="Group_92">
<path id="Vector_181" d="M29.5007 48.1068C29.5007 48.1068 28.3273 47.4282 27.9589 47.3521L27.5915 47.2753L27.9134 45.8602C27.9134 45.8602 29.0001 46.4313 28.9918 46.461C28.9835 46.4906 29.5 48.1057 29.5 48.1057L29.5007 48.1068Z" fill="#6B7B3E"/>
<path id="Vector_182" d="M29.5017 48.1066C29.5363 47.0253 29.8236 46.1784 29.8236 46.1784L27.9141 45.8618L29.5007 48.1073L29.5017 48.1066Z" fill="#4B5B19"/>
</g>
<g id="Group_93">
<path id="Vector_183" d="M31.1822 47.965C31.1822 47.965 30.0007 47.301 29.6317 47.2283L29.2626 47.1557L29.5683 45.7366C29.5683 45.7366 30.661 46.2946 30.6544 46.3246C30.6472 46.3535 31.1815 47.964 31.1815 47.964L31.1822 47.965Z" fill="#6B7B3E"/>
<path id="Vector_184" d="M31.1816 47.9652C31.2038 46.8833 31.4812 46.0327 31.4812 46.0327L29.5684 45.7378L31.1816 47.9652Z" fill="#4B5B19"/>
</g>
<g id="Group_94">
<path id="Vector_185" d="M34.5785 46.1576C34.5785 46.1576 33.3818 45.5219 33.0111 45.4579L32.6411 45.3948L32.913 43.9703C32.913 43.9703 34.0186 44.503 34.012 44.533C34.0054 44.563 34.5782 46.1593 34.5782 46.1593L34.5785 46.1576Z" fill="#6B7B3E"/>
<path id="Vector_186" d="M34.5792 46.1578C34.5756 45.0755 34.8336 44.2186 34.8336 44.2186L32.9141 43.9688L34.5792 46.1578Z" fill="#4B5B19"/>
</g>
<g id="Group_95">
<path id="Vector_187" d="M33.2093 47.2421C33.2093 47.2421 32.0127 46.6064 31.642 46.5423L31.2719 46.4793L31.5449 45.0541C31.5449 45.0541 32.6505 45.5868 32.6439 45.6168C32.6373 45.6468 33.21 47.2431 33.21 47.2431L33.2093 47.2421Z" fill="#6B7B3E"/>
<path id="Vector_188" d="M33.2101 47.2422C33.2065 46.1599 33.4645 45.303 33.4645 45.303L31.5449 45.0532L33.2101 47.2422Z" fill="#4B5B19"/>
</g>
<g id="Group_96">
<path id="Vector_189" d="M36.4179 44.6735C36.4179 44.6735 35.0993 44.361 34.7247 44.3926L34.3509 44.4252L34.2542 42.9772C34.2542 42.9772 35.4589 43.2128 35.4603 43.2434C35.4616 43.2739 36.4186 44.6745 36.4186 44.6745L36.4179 44.6735Z" fill="#6B7B3E"/>
<path id="Vector_190" d="M36.4176 44.6734C36.1413 43.6268 36.1734 42.7333 36.1734 42.7333L34.2539 42.9771L36.4176 44.6734Z" fill="#4B5B19"/>
</g>
<g id="Group_97">
<path id="Vector_191" d="M37.7636 43.1427C37.7636 43.1427 36.4244 42.9387 36.0528 43.0012L35.6831 43.0641L35.4679 41.6293C35.4679 41.6293 36.6878 41.766 36.6912 41.7952C36.6953 41.8254 37.7636 43.1427 37.7636 43.1427Z" fill="#6B7B3E"/>
<path id="Vector_192" d="M37.7645 43.1428C37.4028 42.1229 37.3626 41.2291 37.3626 41.2291L35.4688 41.6294L37.7645 43.1428Z" fill="#4B5B19"/>
</g>
<g id="Group_98">
<path id="Vector_193" d="M39.0436 41.712C39.0436 41.712 37.702 41.5156 37.3326 41.5812L36.9625 41.6458L36.7391 40.2121C36.7391 40.2121 37.9596 40.3409 37.9637 40.3711C37.9678 40.4013 39.0446 41.7113 39.0446 41.7113L39.0436 41.712Z" fill="#6B7B3E"/>
<path id="Vector_194" d="M39.0428 41.7119C38.6753 40.6944 38.6289 39.8003 38.6289 39.8003L36.7383 40.2119L39.0428 41.7119Z" fill="#4B5B19"/>
</g>
<g id="Group_99">
<path id="Vector_195" d="M22.4772 47.7286C22.4772 47.7286 22.1707 46.4086 21.9745 46.0876L21.7783 45.7666L23.0309 45.0349C23.0309 45.0349 23.357 46.2186 23.3293 46.2329C23.3026 46.2466 22.4755 47.7283 22.4755 47.7283L22.4772 47.7286Z" fill="#6B7B3E"/>
<path id="Vector_196" d="M22.4763 47.7288C23.2898 47.0156 24.1043 46.6454 24.1043 46.6454L23.031 45.0344L22.4766 47.7271L22.4763 47.7288Z" fill="#4B5B19"/>
</g>
<path id="Vector_197" d="M27.3672 7.31982L28.7181 7.62687L28.7339 7.00249L27.3672 7.31982Z" fill="#261C02"/>
<path id="Vector_198" d="M26.8523 4.33306C26.8523 4.33306 27.4816 4.64251 28.1215 4.62822C28.7622 4.61494 28.7087 4.3558 28.7087 4.3558L28.629 3.91946C28.629 3.91946 28.361 4.18903 27.9629 4.2697C27.5637 4.35107 26.8516 4.33203 26.8516 4.33203L26.8523 4.33306Z" fill="#261C02"/>
<path id="Vector_199" d="M27.3425 6.56206C27.3425 6.56206 27.9719 6.8715 28.6118 6.8572C29.2524 6.84393 29.1989 6.5848 29.1989 6.5848L29.1192 6.14846C29.1192 6.14846 28.8513 6.41804 28.4531 6.49871C28.0539 6.58007 27.3418 6.56104 27.3418 6.56104L27.3425 6.56206Z" fill="#261C02"/>
<g id="Group_100">
<path id="Vector_200" d="M32.932 45.7689C32.932 45.7689 31.7353 45.1333 31.3646 45.0692L30.9946 45.0062L31.2665 43.5816C31.2665 43.5816 32.3721 44.1144 32.3655 44.1444C32.3589 44.1743 32.9317 45.7707 32.9317 45.7707L32.932 45.7689Z" fill="#6B7B3E"/>
<path id="Vector_201" d="M32.9327 45.7691C32.9291 44.6868 33.1871 43.8299 33.1871 43.8299L31.2676 43.5801L32.9327 45.7691Z" fill="#4B5B19"/>
</g>
<g id="Group_101">
<path id="Vector_202" d="M31.432 46.4608C31.432 46.4608 30.2353 45.8251 29.8646 45.7611L29.4946 45.6981L29.7665 44.2735C29.7665 44.2735 30.8721 44.8063 30.8655 44.8363C30.8589 44.8662 31.4317 46.4625 31.4317 46.4625L31.432 46.4608Z" fill="#6B7B3E"/>
<path id="Vector_203" d="M31.4327 46.461C31.4292 45.3787 31.6872 44.5218 31.6872 44.5218L29.7676 44.272L31.432 46.46L31.4327 46.461Z" fill="#4B5B19"/>
</g>
<g id="Group_102">
<path id="Vector_204" d="M29.6918 46.8012C29.6918 46.8012 28.4951 46.1655 28.1244 46.1014L27.7544 46.0384L28.0263 44.6139C28.0263 44.6139 29.1318 45.1466 29.1253 45.1766C29.1187 45.2066 29.6914 46.8029 29.6914 46.8029L29.6918 46.8012Z" fill="#6B7B3E"/>
<path id="Vector_205" d="M29.6925 46.8013C29.6889 45.719 29.9469 44.8621 29.9469 44.8621L28.0273 44.6123L29.6925 46.8013Z" fill="#4B5B19"/>
</g>
<g id="Group_103">
<path id="Vector_206" d="M27.9945 47.0092C27.9945 47.0092 26.7978 46.3735 26.4271 46.3094L26.0571 46.2464L26.329 44.8219C26.329 44.8219 27.4346 45.3546 27.428 45.3846C27.4214 45.4146 27.9942 47.0109 27.9942 47.0109L27.9945 47.0092Z" fill="#6B7B3E"/>
<path id="Vector_207" d="M27.9952 47.0093C27.9916 45.927 28.2496 45.0701 28.2496 45.0701L26.3301 44.8203L27.9952 47.0093Z" fill="#4B5B19"/>
</g>
<g id="Group_104">
<path id="Vector_208" d="M25.8504 47.0126C25.8504 47.0126 25.1543 45.8498 24.8699 45.604L24.5854 45.3582L25.5548 44.2792C25.5548 44.2792 26.2265 45.3071 26.2054 45.3289C26.1843 45.3508 25.8494 47.0133 25.8494 47.0133L25.8504 47.0126Z" fill="#6B7B3E"/>
<path id="Vector_209" d="M25.8498 47.0124C26.406 46.0844 27.0696 45.4838 27.0696 45.4838L25.5553 44.2783L25.8498 47.0124Z" fill="#4B5B19"/>
</g>
<g id="Group_105">
<path id="Vector_210" d="M35.7986 36.4579C35.7986 36.4579 34.4652 36.6986 34.1347 36.8787L33.8053 37.058L33.1366 35.7702C33.1366 35.7702 34.3346 35.5047 34.3483 35.5314C34.3609 35.5588 35.7993 36.459 35.7993 36.459L35.7986 36.4579Z" fill="#6B7B3E"/>
<path id="Vector_211" d="M35.7987 36.4578C35.1261 35.6092 34.7983 34.7777 34.7983 34.7777L33.1367 35.77L35.7987 36.4578Z" fill="#4B5B19"/>
</g>
<g id="Group_106">
<path id="Vector_212" d="M35.5983 32.0146C35.5983 32.0146 34.3936 32.6357 34.1311 32.9045L33.8679 33.1723L32.8516 32.1362C32.8516 32.1362 33.9196 31.5302 33.9394 31.5527C33.9603 31.5745 35.5977 32.0136 35.5977 32.0136L35.5983 32.0146Z" fill="#6B7B3E"/>
<path id="Vector_213" d="M35.5978 32.0145C34.7057 31.4009 34.1484 30.7017 34.1484 30.7017L32.8499 32.1368L35.5978 32.0145Z" fill="#4B5B19"/>
</g>
<g id="Group_107">
<path id="Vector_214" d="M35.6687 28.0864C35.6687 28.0864 34.4639 28.7075 34.2014 28.9763L33.9382 29.2441L32.9219 28.208C32.9219 28.208 33.9899 27.602 34.0097 27.6245C34.0306 27.6463 35.669 28.0847 35.669 28.0847L35.6687 28.0864Z" fill="#6B7B3E"/>
<path id="Vector_215" d="M35.6681 28.0863C34.776 27.4727 34.2187 26.7735 34.2187 26.7735L32.9203 28.2086L35.6681 28.0863Z" fill="#4B5B19"/>
</g>
<g id="Group_108">
<path id="Vector_216" d="M35.6648 25.5263C35.6648 25.5263 34.46 26.1474 34.1975 26.4162L33.9343 26.684L32.918 25.6479C32.918 25.6479 33.986 25.0419 34.0059 25.0644C34.0267 25.0862 35.6641 25.5253 35.6641 25.5253L35.6648 25.5263Z" fill="#6B7B3E"/>
<path id="Vector_217" d="M35.6642 25.5262C34.7721 24.9126 34.2148 24.2135 34.2148 24.2135L32.9164 25.6486L35.6642 25.5262Z" fill="#4B5B19"/>
</g>
<g id="Group_109">
<path id="Vector_218" d="M36.1648 27.06C36.1648 27.06 34.96 27.6811 34.6975 27.9499L34.4343 28.2178L33.418 27.1816C33.418 27.1816 34.486 26.5756 34.5058 26.5981C34.5257 26.6206 36.1641 27.059 36.1641 27.059L36.1648 27.06Z" fill="#6B7B3E"/>
<path id="Vector_219" d="M36.1642 27.0599C35.2721 26.4463 34.7148 25.7472 34.7148 25.7472L33.4164 27.1823L36.1642 27.0599Z" fill="#4B5B19"/>
</g>
<g id="Group_110">
<path id="Vector_220" d="M35.7175 23.5537C35.7175 23.5537 34.5127 24.1748 34.2502 24.4436L33.987 24.7114L32.9707 23.6753C32.9707 23.6753 34.0387 23.0693 34.0586 23.0918C34.0794 23.1136 35.7168 23.5526 35.7168 23.5526L35.7175 23.5537Z" fill="#6B7B3E"/>
<path id="Vector_221" d="M35.7169 23.5536C34.8248 22.94 34.2675 22.2408 34.2675 22.2408L32.9691 23.6759L35.7169 23.5536Z" fill="#4B5B19"/>
</g>
<g id="Group_111">
<path id="Vector_222" d="M35.5945 21.5732C35.5945 21.5732 34.3897 22.1943 34.1272 22.4631L33.864 22.7309L32.8477 21.6948C32.8477 21.6948 33.9157 21.0888 33.9356 21.1113C33.9554 21.1338 35.5938 21.5721 35.5938 21.5721L35.5945 21.5732Z" fill="#6B7B3E"/>
<path id="Vector_223" d="M35.5939 21.5731C34.7018 20.9595 34.1445 20.2603 34.1445 20.2603L32.846 21.6955L35.5939 21.5731Z" fill="#4B5B19"/>
</g>
<g id="Group_112">
<path id="Vector_224" d="M34.0506 38.1586C34.0506 38.1586 32.7171 38.3993 32.3867 38.5793L32.0573 38.7587L31.3886 37.4708C31.3886 37.4708 32.5866 37.2054 32.6002 37.2321C32.6129 37.2595 34.0513 38.1596 34.0513 38.1596L34.0506 38.1586Z" fill="#6B7B3E"/>
<path id="Vector_225" d="M34.0507 38.1585C33.3788 37.3109 33.0503 36.4784 33.0503 36.4784L31.3887 37.4707L34.0507 38.1585Z" fill="#4B5B19"/>
</g>
<g id="Group_113">
<path id="Vector_226" d="M31.0452 42.7423C31.0452 42.7423 29.7785 42.2594 29.4035 42.2418L29.0284 42.2242L29.1226 40.7767C29.1226 40.7767 30.2863 41.1678 30.2831 41.1984C30.28 41.2291 31.0462 42.7416 31.0462 42.7416L31.0452 42.7423Z" fill="#6B7B3E"/>
<path id="Vector_227" d="M31.0456 42.7425C30.9083 41.6687 31.0578 40.7868 31.0578 40.7868L29.123 40.7769L31.0466 42.7418L31.0456 42.7425Z" fill="#4B5B19"/>
</g>
<g id="Group_114">
<path id="Vector_228" d="M28.3558 45.3497C28.3558 45.3497 27.0891 44.8668 26.714 44.8492L26.3389 44.8316L26.4332 43.3841C26.4332 43.3841 27.5968 43.7752 27.5937 43.8059C27.5906 43.8365 28.3568 45.349 28.3568 45.349L28.3558 45.3497Z" fill="#6B7B3E"/>
<path id="Vector_229" d="M28.3562 45.3499C28.2189 44.2761 28.3683 43.3942 28.3683 43.3942L26.4336 43.3843L28.3562 45.3499Z" fill="#4B5B19"/>
</g>
<g id="Group_115">
<path id="Vector_230" d="M33.1326 39.955C33.1326 39.955 31.7992 40.1957 31.4687 40.3757L31.1393 40.5551L30.4706 39.2672C30.4706 39.2672 31.6686 39.0018 31.6823 39.0285C31.6949 39.0559 33.1333 39.956 33.1333 39.956L33.1326 39.955Z" fill="#6B7B3E"/>
<path id="Vector_231" d="M33.1327 39.9549C32.4608 39.1073 32.1323 38.2748 32.1323 38.2748L30.4707 39.2671L33.1327 39.9549Z" fill="#4B5B19"/>
</g>
<g id="Group_116">
<path id="Vector_232" d="M32.2791 41.3569C32.2791 41.3569 30.9456 41.5975 30.6152 41.7776L30.2858 41.957L29.6171 40.6691C29.6171 40.6691 30.8161 40.4029 30.8288 40.4303C30.8414 40.4577 32.2798 41.3579 32.2798 41.3579L32.2791 41.3569Z" fill="#6B7B3E"/>
<path id="Vector_233" d="M32.2799 41.3568C31.608 40.5092 31.2795 39.6767 31.2795 39.6767L29.6172 40.668L32.2792 41.3558L32.2799 41.3568Z" fill="#4B5B19"/>
</g>
<g id="Group_117">
<path id="Vector_234" d="M34.3089 44.369C34.3089 44.369 33.1123 43.7334 32.7415 43.6693L32.3715 43.6063L32.6445 42.181C32.6445 42.181 33.7501 42.7138 33.7435 42.7438C33.7369 42.7737 34.3096 44.3701 34.3096 44.3701L34.3089 44.369Z" fill="#6B7B3E"/>
<path id="Vector_235" d="M34.3097 44.3692C34.3061 43.2869 34.5641 42.43 34.5641 42.43L32.6445 42.1802L34.3097 44.3692Z" fill="#4B5B19"/>
</g>
<g id="Group_118">
<path id="Vector_236" d="M35.9034 43.137C35.9034 43.137 34.5788 42.851 34.2053 42.8908L33.8319 42.9306L33.7053 41.485C33.7053 41.485 34.9146 41.6965 34.916 41.7271C34.9173 41.7577 35.9034 43.137 35.9034 43.137Z" fill="#6B7B3E"/>
<path id="Vector_237" d="M35.9031 43.1368C35.6052 42.096 35.6193 41.2026 35.6193 41.2026L33.7051 41.4849L35.9031 43.1368Z" fill="#4B5B19"/>
</g>
<g id="Group_119">
<path id="Vector_238" d="M36.0792 41.5471C36.0792 41.5471 34.7546 41.2611 34.3811 41.301L34.0077 41.3408L33.8811 39.8951C33.8811 39.8951 35.0904 40.1066 35.0918 40.1372C35.0931 40.1678 36.0781 41.5478 36.0781 41.5478L36.0792 41.5471Z" fill="#6B7B3E"/>
<path id="Vector_239" d="M36.0789 41.547C35.781 40.5061 35.7951 39.6128 35.7951 39.6128L33.8809 39.895L36.0789 41.547Z" fill="#4B5B19"/>
</g>
<g id="Group_120">
<path id="Vector_240" d="M38.0772 38.3982C38.0772 38.3982 36.7526 38.1122 36.3792 38.152L36.0057 38.1919L35.8792 36.7462C35.8792 36.7462 37.0885 36.9577 37.0898 36.9883C37.0911 37.0189 38.0772 38.3982 38.0772 38.3982Z" fill="#6B7B3E"/>
<path id="Vector_241" d="M38.0769 38.3981C37.779 37.3572 37.7932 36.4639 37.7932 36.4639L35.8789 36.7461L38.0769 38.3981Z" fill="#4B5B19"/>
</g>
<g id="Group_121">
<path id="Vector_242" d="M36.9795 40.3621C36.9795 40.3621 35.655 40.076 35.2815 40.1159L34.9081 40.1557L34.7815 38.7101C34.7815 38.7101 35.9908 38.9216 35.9922 38.9522C35.9935 38.9828 36.9795 40.3621 36.9795 40.3621Z" fill="#6B7B3E"/>
<path id="Vector_243" d="M36.9793 40.3619C36.6814 39.3211 36.6955 38.4277 36.6955 38.4277L34.7812 38.71L36.9793 40.3619Z" fill="#4B5B19"/>
</g>
<g id="Group_122">
<path id="Vector_244" d="M34.9991 39.9133C34.9991 39.9133 33.6745 39.6273 33.3011 39.6671L32.9276 39.707L32.801 38.2613C32.801 38.2613 34.0104 38.4728 34.0117 38.5034C34.013 38.534 34.9991 39.9133 34.9991 39.9133Z" fill="#6B7B3E"/>
<path id="Vector_245" d="M34.9988 39.9132C34.7009 38.8723 34.715 37.979 34.715 37.979L32.8008 38.2612L34.9988 39.9132Z" fill="#4B5B19"/>
</g>
<g id="Group_123">
<path id="Vector_246" d="M34.2901 41.6863C34.2901 41.6863 32.9655 41.4002 32.5921 41.4401L32.2186 41.4799L32.0921 40.0343C32.0921 40.0343 33.3014 40.2458 33.3027 40.2764C33.3041 40.307 34.2908 41.6873 34.2908 41.6873L34.2901 41.6863Z" fill="#6B7B3E"/>
<path id="Vector_247" d="M34.2899 41.6861C33.9919 40.6453 34.0061 39.752 34.0061 39.752L32.0918 40.0342L34.2899 41.6861Z" fill="#4B5B19"/>
</g>
<g id="Group_124">
<path id="Vector_248" d="M33.3624 43.1863C33.3624 43.1863 32.0378 42.9003 31.6643 42.9401L31.2909 42.98L31.1643 41.5343C31.1643 41.5343 32.3737 41.7458 32.375 41.7764C32.3763 41.807 33.3624 43.1863 33.3624 43.1863Z" fill="#6B7B3E"/>
<path id="Vector_249" d="M33.3621 43.1861C33.0642 42.1453 33.0783 41.252 33.0783 41.252L31.1641 41.5342L33.3621 43.1861Z" fill="#4B5B19"/>
</g>
<g id="Group_125">
<path id="Vector_250" d="M31.8049 44.8506C31.8049 44.8506 30.5765 44.2785 30.2029 44.2344L29.8293 44.1904L30.0261 42.7525C30.0261 42.7525 31.1589 43.2261 31.1534 43.2554C31.1485 43.2857 31.8042 44.8496 31.8042 44.8496L31.8049 44.8506Z" fill="#6B7B3E"/>
<path id="Vector_251" d="M31.8054 44.8505C31.7461 43.7701 31.9572 42.9017 31.9572 42.9017L30.0273 42.7534L31.8044 44.8512L31.8054 44.8505Z" fill="#4B5B19"/>
</g>
<g id="Group_126">
<path id="Vector_252" d="M30.4787 45.6114C30.4787 45.6114 29.2503 45.0393 28.8767 44.9952L28.5031 44.9511L28.7 43.5132C28.7 43.5132 29.8328 43.9869 29.8272 44.0162C29.8224 44.0465 30.478 45.6103 30.478 45.6103L30.4787 45.6114Z" fill="#6B7B3E"/>
<path id="Vector_253" d="M30.4793 45.6113C30.4193 44.5298 30.6311 43.6624 30.6311 43.6624L28.7012 43.5142L30.4782 45.612L30.4793 45.6113Z" fill="#4B5B19"/>
</g>
<g id="Group_127">
<path id="Vector_254" d="M19.8165 13.2605C19.8165 13.2605 20.9788 13.7246 21.3246 13.7455L21.6705 13.7665L21.5628 15.1017C21.5628 15.1017 20.4949 14.7234 20.4973 14.6962C20.5008 14.6683 19.8154 13.2612 19.8154 13.2612L19.8165 13.2605Z" fill="#6B7B3E"/>
<path id="Vector_255" d="M19.8171 13.2607C19.9288 14.2529 19.7784 15.065 19.7784 15.065L21.5645 15.1012L19.8182 13.26L19.8171 13.2607Z" fill="#4B5B19"/>
</g>
<g id="Group_128">
<path id="Vector_256" d="M15.6934 18.0015C15.6934 18.0015 16.9434 18.0547 17.2774 17.9592L17.6104 17.8644L17.9521 19.159C17.9521 19.159 16.8192 19.1565 16.8127 19.1294C16.8063 19.1023 15.6934 18.0015 15.6934 18.0015Z" fill="#6B7B3E"/>
<path id="Vector_257" d="M15.6924 18.0015C16.1268 18.9013 16.2533 19.7169 16.2533 19.7169L17.9502 19.1596L15.6924 18.0015Z" fill="#4B5B19"/>
</g>
<g id="Group_129">
<path id="Vector_258" d="M16.7637 16.3027C16.7637 16.3027 18.0137 16.3559 18.3477 16.2604L18.6808 16.1656L19.0225 17.4602C19.0225 17.4602 17.8895 17.4578 17.8831 17.4307C17.8766 17.4036 16.7637 16.3027 16.7637 16.3027Z" fill="#6B7B3E"/>
<path id="Vector_259" d="M16.7627 16.3027C17.1971 17.2026 17.3236 18.0182 17.3236 18.0182L19.0205 17.4609L16.7627 16.3027Z" fill="#4B5B19"/>
</g>
<g id="Group_130">
<path id="Vector_260" d="M18.1699 14.6665C18.1699 14.6665 19.3961 14.916 19.7403 14.8751L20.0845 14.8341L20.2182 16.1669C20.2182 16.1669 19.1004 15.9862 19.0977 15.958C19.0967 15.9301 18.1706 14.6675 18.1706 14.6675L18.1699 14.6665Z" fill="#6B7B3E"/>
<path id="Vector_261" d="M18.1705 14.6663C18.4576 15.623 18.4545 16.4488 18.4545 16.4488L20.2182 16.1657L18.1705 14.6663Z" fill="#4B5B19"/>
</g>
<g id="Group_131">
<path id="Vector_262" d="M12.7539 25.8359C12.7539 25.8359 13.9364 25.4266 14.2118 25.2164L14.4873 25.0063L15.2795 26.0855C15.2795 26.0855 14.2239 26.4985 14.2086 26.4759C14.1932 26.4534 12.7539 25.8359 12.7539 25.8359Z" fill="#6B7B3E"/>
<path id="Vector_263" d="M12.7539 25.8359C13.4874 26.5141 13.9048 27.226 13.9048 27.226L15.2795 26.0855L12.7539 25.8359Z" fill="#4B5B19"/>
</g>
<g id="Group_132">
<path id="Vector_264" d="M13.1094 24.0649C13.1094 24.0649 14.2919 23.6556 14.5673 23.4454L14.8428 23.2353L15.635 24.3145C15.635 24.3145 14.5794 24.7275 14.5641 24.7049C14.5487 24.6824 13.1094 24.0649 13.1094 24.0649Z" fill="#6B7B3E"/>
<path id="Vector_265" d="M13.1094 24.0649C13.8429 24.7431 14.2603 25.455 14.2603 25.455L15.635 24.3145L13.1094 24.0649Z" fill="#4B5B19"/>
</g>
<g id="Group_133">
<path id="Vector_266" d="M13.6944 21.9773C13.6944 21.9773 14.9244 21.7456 15.2274 21.5782L15.5305 21.4108L16.1555 22.5949C16.1555 22.5949 15.0516 22.8487 15.0393 22.8241C15.0271 22.7994 13.6934 21.978 13.6934 21.978L13.6944 21.9773Z" fill="#6B7B3E"/>
<path id="Vector_267" d="M13.6952 21.9773C14.3213 22.7555 14.6296 23.5208 14.6296 23.5208L16.1573 22.5941L13.6952 21.9773Z" fill="#4B5B19"/>
</g>
<g id="Group_134">
<path id="Vector_268" d="M14.623 19.9971C14.623 19.9971 15.8686 19.8808 16.1868 19.7421L16.5049 19.6034L17.0173 20.8402C17.0173 20.8402 15.8938 20.9904 15.8846 20.9637C15.8744 20.9376 14.623 19.9971 14.623 19.9971Z" fill="#6B7B3E"/>
<path id="Vector_269" d="M14.6235 19.997C15.1749 20.8307 15.4115 21.6208 15.4115 21.6208L17.0178 20.8402L14.6235 19.997Z" fill="#4B5B19"/>
</g>
<g id="Group_135">
<path id="Vector_270" d="M12.5352 27.7607C12.5352 27.7607 13.7176 27.3514 13.9931 27.1412L14.2686 26.9311L15.0607 28.0103C15.0607 28.0103 14.0052 28.4233 13.9898 28.4007C13.9745 28.3782 12.5352 27.7607 12.5352 27.7607Z" fill="#6B7B3E"/>
<path id="Vector_271" d="M12.5352 27.7607C13.2686 28.4389 13.686 29.1508 13.686 29.1508L15.0607 28.0103L12.5352 27.7607Z" fill="#4B5B19"/>
</g>
<g id="Group_136">
<path id="Vector_272" d="M12.2403 29.8655C12.2403 29.8655 13.2957 29.1946 13.5162 28.9258L13.7357 28.6578L14.7555 29.525C14.7555 29.525 13.8237 30.1702 13.8032 30.1511C13.7828 30.1321 12.2396 29.8644 12.2396 29.8644L12.2403 29.8655Z" fill="#6B7B3E"/>
<path id="Vector_273" d="M12.2402 29.8652C13.1101 30.3559 13.6815 30.9525 13.6815 30.9525L14.7562 29.5258L12.2409 29.8663L12.2402 29.8652Z" fill="#4B5B19"/>
</g>
<g id="Group_137">
<path id="Vector_274" d="M12.4805 32.3099C12.4805 32.3099 13.3325 31.3934 13.4769 31.079L13.6224 30.7639L14.8285 31.3451C14.8285 31.3451 14.0907 32.2047 14.0655 32.1919C14.0403 32.1791 12.4805 32.3099 12.4805 32.3099Z" fill="#6B7B3E"/>
<path id="Vector_275" d="M12.4805 32.3101C13.446 32.5646 14.1492 32.9978 14.1492 32.9978L14.8285 31.3453L12.4805 32.3101Z" fill="#4B5B19"/>
</g>
<g id="Group_138">
<path id="Vector_276" d="M12.9801 33.736C12.9801 33.736 13.9559 32.9527 14.1442 32.6609L14.3332 32.3701L15.443 33.1205C15.443 33.1205 14.5889 33.8644 14.566 33.8484C14.5432 33.8325 12.9801 33.736 12.9801 33.736Z" fill="#6B7B3E"/>
<path id="Vector_277" d="M12.9805 33.7358C13.8996 34.127 14.5325 34.6576 14.5325 34.6576L15.4434 33.1204L12.9805 33.7358Z" fill="#4B5B19"/>
</g>
<g id="Group_139">
<path id="Vector_278" d="M13.5027 35.8834C13.5027 35.8834 14.2708 34.8966 14.3873 34.5697L14.5037 34.2428L15.7562 34.716C15.7562 34.716 15.0968 35.6377 15.0712 35.6266C15.0457 35.6156 13.5027 35.8834 13.5027 35.8834Z" fill="#6B7B3E"/>
<path id="Vector_279" d="M13.502 35.8833C14.4866 36.0513 15.2249 36.4216 15.2249 36.4216L15.7554 34.7159L13.502 35.8833Z" fill="#4B5B19"/>
</g>
<g id="Group_140">
<path id="Vector_280" d="M14.3141 37.9285C14.3141 37.9285 14.8079 36.7789 14.8378 36.433L14.8677 36.087L16.1991 36.2289C16.1991 36.2289 15.7942 37.2863 15.7663 37.2828C15.7384 37.2793 14.3134 37.9274 14.3134 37.9274L14.3141 37.9285Z" fill="#6B7B3E"/>
<path id="Vector_281" d="M14.3145 37.9284C15.3096 37.8432 16.1172 38.0132 16.1172 38.0132L16.1994 36.2288L14.3138 37.9274L14.3145 37.9284Z" fill="#4B5B19"/>
</g>
<g id="Group_141">
<path id="Vector_282" d="M15.0593 39.4918C15.0593 39.4918 15.7695 38.4619 15.8666 38.1287L15.9637 37.7954L17.2416 38.1957C17.2416 38.1957 16.6369 39.1538 16.6093 39.1441C16.5834 39.1347 15.0586 39.4908 15.0586 39.4908L15.0593 39.4918Z" fill="#6B7B3E"/>
<path id="Vector_283" d="M15.0586 39.4917C16.0513 39.6032 16.8094 39.9299 16.8094 39.9299L17.2417 38.1967L15.0586 39.4917Z" fill="#4B5B19"/>
</g>
<g id="Group_142">
<path id="Vector_284" d="M16.0674 41.3621C16.0674 41.3621 16.5197 40.1958 16.5389 39.8496L16.5565 39.5031L17.8922 39.5984C17.8922 39.5984 17.5239 40.67 17.4967 40.6675C17.4688 40.664 16.0681 41.3631 16.0681 41.3631L16.0674 41.3621Z" fill="#6B7B3E"/>
<path id="Vector_285" d="M16.0665 41.362C17.0585 41.2413 17.8713 41.3838 17.8713 41.3838L17.8913 39.5983L16.0665 41.362Z" fill="#4B5B19"/>
</g>
<g id="Group_143">
<path id="Vector_286" d="M17.7122 43.1865C17.7122 43.1865 17.856 41.9439 17.7855 41.6048L17.7151 41.2656L19.0316 41.02C19.0316 41.02 18.9459 42.1496 18.9191 42.1544C18.8916 42.1581 17.7119 43.1883 17.7119 43.1883L17.7122 43.1865Z" fill="#6B7B3E"/>
<path id="Vector_287" d="M17.7117 43.1863C18.6408 42.819 19.4631 42.751 19.4631 42.751L19.0314 41.0181L17.7117 43.1863Z" fill="#4B5B19"/>
</g>
<g id="Group_144">
<path id="Vector_288" d="M18.9599 44.0399C18.9599 44.0399 19.2811 42.8309 19.2611 42.4844L19.2412 42.1379L20.5792 42.0846C20.5792 42.0846 20.332 43.1908 20.3034 43.1907C20.2749 43.1907 18.9599 44.0399 18.9599 44.0399Z" fill="#6B7B3E"/>
<path id="Vector_289" d="M18.959 44.0401C19.9307 43.8103 20.7553 43.8623 20.7553 43.8623L20.5784 42.0849L18.959 44.0401Z" fill="#4B5B19"/>
</g>
<g id="Group_145">
<path id="Vector_290" d="M20.6519 45.4601C20.6519 45.4601 20.6855 44.2099 20.5862 43.8769L20.4859 43.5446L21.7751 43.1841C21.7751 43.1841 21.7896 44.3175 21.7624 44.324C21.7353 44.3304 20.6508 45.4608 20.6508 45.4608L20.6519 45.4601Z" fill="#6B7B3E"/>
<path id="Vector_291" d="M20.6522 45.4602C21.5447 45.0128 22.3584 44.8726 22.3584 44.8726L21.7755 43.1842L20.6522 45.4602Z" fill="#4B5B19"/>
</g>
<g id="Group_146">
<path id="Vector_292" d="M22.7115 46.5214C22.7115 46.5214 22.4277 45.3029 22.2472 45.0072L22.0668 44.7115L23.2229 44.0365C23.2229 44.0365 23.5234 45.1296 23.4988 45.1419C23.4738 45.1559 22.7105 46.5221 22.7105 46.5221L22.7115 46.5214Z" fill="#6B7B3E"/>
<path id="Vector_293" d="M22.7119 46.5212C23.4633 45.8623 24.2142 45.5218 24.2142 45.5218L23.2233 44.0363L22.7109 46.5219L22.7119 46.5212Z" fill="#4B5B19"/>
</g>
<g id="Group_147">
<path id="Vector_294" d="M21.1153 13.3675C21.1153 13.3675 22.2776 13.8315 22.6235 13.8525L22.9693 13.8734L22.8616 15.2086C22.8616 15.2086 21.7937 14.8303 21.7962 14.8031C21.7997 14.7752 21.1143 13.3682 21.1143 13.3682L21.1153 13.3675Z" fill="#6B7B3E"/>
<path id="Vector_295" d="M21.116 13.3676C21.2267 14.3605 21.0772 15.1719 21.0772 15.1719L22.8633 15.2081L21.117 13.3669L21.116 13.3676Z" fill="#4B5B19"/>
</g>
<g id="Group_148">
<path id="Vector_296" d="M16.9922 18.1089C16.9922 18.1089 18.2422 18.1621 18.5763 18.0666L18.9093 17.9718L19.251 19.2664C19.251 19.2664 18.118 19.2639 18.1116 19.2368C18.1051 19.2097 16.9922 18.1089 16.9922 18.1089Z" fill="#6B7B3E"/>
<path id="Vector_297" d="M16.9912 18.1089C17.4257 19.0087 17.5521 19.8243 17.5521 19.8243L19.249 19.2671L16.9912 18.1089Z" fill="#4B5B19"/>
</g>
<g id="Group_149">
<path id="Vector_298" d="M18.0605 16.4102C18.0605 16.4102 19.3106 16.4634 19.6446 16.3679L19.9776 16.2731L20.3193 17.5676C20.3193 17.5676 19.1864 17.5652 19.18 17.5381C19.1735 17.511 18.0605 16.4102 18.0605 16.4102Z" fill="#6B7B3E"/>
<path id="Vector_299" d="M18.0615 16.4102C18.4959 17.31 18.6224 18.1256 18.6224 18.1256L20.3193 17.5683L18.0615 16.4102Z" fill="#4B5B19"/>
</g>
<g id="Group_150">
<path id="Vector_300" d="M19.4688 14.7744C19.4688 14.7744 20.6949 15.0239 21.0392 14.983L21.3834 14.9421L21.5171 16.2748C21.5171 16.2748 20.3992 16.0941 20.3965 16.0659C20.3938 16.0377 19.4694 14.7754 19.4694 14.7754L19.4688 14.7744Z" fill="#6B7B3E"/>
<path id="Vector_301" d="M19.4694 14.7742C19.7565 15.7309 19.7534 16.5567 19.7534 16.5567L21.517 16.2736L19.4694 14.7742Z" fill="#4B5B19"/>
</g>
<g id="Group_151">
<path id="Vector_302" d="M14.0527 25.9434C14.0527 25.9434 15.2352 25.534 15.5107 25.3238L15.7861 25.1137L16.5783 26.1929C16.5783 26.1929 15.5228 26.6059 15.5074 26.5833C15.4921 26.5608 14.0527 25.9434 14.0527 25.9434Z" fill="#6B7B3E"/>
<path id="Vector_303" d="M14.0527 25.9434C14.7862 26.6215 15.2037 27.3334 15.2037 27.3334L16.5783 26.1929L14.0527 25.9434Z" fill="#4B5B19"/>
</g>
<g id="Group_152">
<path id="Vector_304" d="M14.4082 24.1724C14.4082 24.1724 15.5907 23.763 15.8661 23.5528L16.1416 23.3427L16.9338 24.422C16.9338 24.422 15.8782 24.8349 15.8629 24.8123C15.8475 24.7898 14.4082 24.1724 14.4082 24.1724Z" fill="#6B7B3E"/>
<path id="Vector_305" d="M14.4082 24.1724C15.1417 24.8505 15.5591 25.5624 15.5591 25.5624L16.9338 24.422L14.4082 24.1724Z" fill="#4B5B19"/>
</g>
<g id="Group_153">
<path id="Vector_306" d="M14.9932 22.0843C14.9932 22.0843 16.2222 21.8532 16.5263 21.6851L16.8293 21.5177L17.4544 22.7018C17.4544 22.7018 16.3505 22.9556 16.3382 22.931C16.3259 22.9064 14.9922 22.085 14.9922 22.085L14.9932 22.0843Z" fill="#6B7B3E"/>
<path id="Vector_307" d="M14.994 22.0842C15.6202 22.8625 15.9284 23.6277 15.9284 23.6277L17.4562 22.7011L14.994 22.0842Z" fill="#4B5B19"/>
</g>
<g id="Group_154">
<path id="Vector_308" d="M15.9238 20.105C15.9238 20.105 17.1694 19.9887 17.4875 19.85L17.8057 19.7113L18.3181 20.9481C18.3181 20.9481 17.1946 21.0983 17.1854 21.0716C17.1751 21.0455 15.9249 20.1043 15.9249 20.1043L15.9238 20.105Z" fill="#6B7B3E"/>
<path id="Vector_309" d="M15.9234 20.1052C16.4748 20.9389 16.7103 21.7296 16.7103 21.7296L18.3166 20.9491L15.9224 20.1059L15.9234 20.1052Z" fill="#4B5B19"/>
</g>
<g id="Group_155">
<path id="Vector_310" d="M13.834 27.8687C13.834 27.8687 15.0165 27.4593 15.2919 27.2491L15.5674 27.039L16.3596 28.1183C16.3596 28.1183 15.304 28.5312 15.2887 28.5086C15.2733 28.4861 13.834 27.8687 13.834 27.8687Z" fill="#6B7B3E"/>
<path id="Vector_311" d="M13.834 27.8687C14.5675 28.5468 14.9849 29.2587 14.9849 29.2587L16.3596 28.1183L13.834 27.8687Z" fill="#4B5B19"/>
</g>
<g id="Group_156">
<path id="Vector_312" d="M13.5391 29.9734C13.5391 29.9734 14.5945 29.3025 14.815 29.0337L15.0346 28.7657L16.0543 29.6329C16.0543 29.6329 15.1225 30.2781 15.1021 30.259C15.0816 30.24 13.5384 29.9723 13.5384 29.9723L13.5391 29.9734Z" fill="#6B7B3E"/>
<path id="Vector_313" d="M13.5391 29.9731C14.4089 30.4639 14.9803 31.0604 14.9803 31.0604L16.055 29.6337L13.5398 29.9742L13.5391 29.9731Z" fill="#4B5B19"/>
</g>
<g id="Group_157">
<path id="Vector_314" d="M14.6036 31.0144C14.6036 31.0144 15.659 30.3435 15.8795 30.0748L16.099 29.8067L17.1188 30.6739C17.1188 30.6739 16.187 31.3191 16.1665 31.3001C16.146 31.281 14.6029 31.0134 14.6029 31.0134L14.6036 31.0144Z" fill="#6B7B3E"/>
<path id="Vector_315" d="M14.6035 31.0142C15.4744 31.5042 16.0448 32.1014 16.0448 32.1014L17.1194 30.6747L14.6042 31.0152L14.6035 31.0142Z" fill="#4B5B19"/>
</g>
<g id="Group_158">
<path id="Vector_316" d="M15.086 28.9817C15.086 28.9817 16.1414 28.3108 16.3619 28.042L16.5814 27.774L17.6012 28.6412C17.6012 28.6412 16.6694 29.2864 16.6489 29.2673C16.6285 29.2483 15.0853 28.9806 15.0853 28.9806L15.086 28.9817Z" fill="#6B7B3E"/>
<path id="Vector_317" d="M15.0859 28.9814C15.9568 29.4715 16.5272 30.0687 16.5272 30.0687L17.6018 28.642L15.0866 28.9825L15.0859 28.9814Z" fill="#4B5B19"/>
</g>
<g id="Group_159">
<path id="Vector_318" d="M15.377 26.8625C15.377 26.8625 16.4324 26.1917 16.6529 25.9229L16.8724 25.6549L17.8929 26.5231C17.8929 26.5231 16.9611 27.1683 16.9406 27.1493C16.9201 27.1302 15.377 26.8625 15.377 26.8625Z" fill="#6B7B3E"/>
<path id="Vector_319" d="M15.377 26.8623C16.2479 27.3523 16.8182 27.9495 16.8182 27.9495L17.8929 26.5228L15.3777 26.8633L15.377 26.8623Z" fill="#4B5B19"/>
</g>
<g id="Group_160">
<path id="Vector_320" d="M16.209 23.7754C16.209 23.7754 17.4239 23.4775 17.7185 23.2933L18.0121 23.1098L18.7011 24.2578C18.7011 24.2578 17.6126 24.5717 17.5986 24.5467C17.5846 24.5218 16.209 23.7754 16.209 23.7754Z" fill="#6B7B3E"/>
<path id="Vector_321" d="M16.209 23.7754C16.8767 24.5178 17.2264 25.2668 17.2264 25.2668L18.7011 24.2578L16.209 23.7754Z" fill="#4B5B19"/>
</g>
<g id="Group_161">
<path id="Vector_322" d="M16.6836 21.522C16.6836 21.522 17.8985 21.224 18.1931 21.0399L18.4867 20.8564L19.1757 22.0044C19.1757 22.0044 18.0872 22.3183 18.0732 22.2933C18.0592 22.2683 16.6836 21.522 16.6836 21.522Z" fill="#6B7B3E"/>
<path id="Vector_323" d="M16.6836 21.522C17.3514 22.2644 17.701 23.0134 17.701 23.0134L19.1757 22.0044L16.6836 21.522Z" fill="#4B5B19"/>
</g>
<g id="Group_162">
<path id="Vector_324" d="M13.7812 32.4173C13.7812 32.4173 14.6333 31.5008 14.7777 31.1864L14.9232 30.8713L16.1293 31.4525C16.1293 31.4525 15.3915 32.3121 15.3663 32.2993C15.3411 32.2865 13.7812 32.4173 13.7812 32.4173Z" fill="#6B7B3E"/>
<path id="Vector_325" d="M13.7812 32.4175C14.7468 32.672 15.45 33.1052 15.45 33.1052L16.1293 31.4527L13.7812 32.4175Z" fill="#4B5B19"/>
</g>
<g id="Group_163">
<path id="Vector_326" d="M14.2809 33.8434C14.2809 33.8434 15.2567 33.0602 15.445 32.7684L15.634 32.4776L16.7438 33.2279C16.7438 33.2279 15.8897 33.9718 15.8668 33.9558C15.844 33.9399 14.2809 33.8434 14.2809 33.8434Z" fill="#6B7B3E"/>
<path id="Vector_327" d="M14.2812 33.8433C15.2004 34.2344 15.8333 34.765 15.8333 34.765L16.7442 33.2278L14.2812 33.8433Z" fill="#4B5B19"/>
</g>
<g id="Group_164">
<path id="Vector_328" d="M14.8015 35.9903C14.8015 35.9903 15.5697 35.0035 15.6861 34.6766L15.8025 34.3498L17.055 34.8229C17.055 34.8229 16.3956 35.7447 16.3701 35.7336C16.3445 35.7225 14.8015 35.9903 14.8015 35.9903Z" fill="#6B7B3E"/>
<path id="Vector_329" d="M14.8008 35.9902C15.7854 36.1582 16.5238 36.5285 16.5238 36.5285L17.0543 34.8228L14.8008 35.9902Z" fill="#4B5B19"/>
</g>
<g id="Group_165">
<path id="Vector_330" d="M15.6149 38.0359C15.6149 38.0359 16.1087 36.8863 16.1386 36.5404L16.1685 36.1944L17.4999 36.3363C17.4999 36.3363 17.095 37.3938 17.0671 37.3903C17.0392 37.3868 15.6142 38.0349 15.6142 38.0349L15.6149 38.0359Z" fill="#6B7B3E"/>
<path id="Vector_331" d="M15.6152 38.0358C16.6104 37.9506 17.418 38.1207 17.418 38.1207L17.5002 36.3362L15.6145 38.0348L15.6152 38.0358Z" fill="#4B5B19"/>
</g>
<g id="Group_166">
<path id="Vector_332" d="M16.3581 39.5982C16.3581 39.5982 17.0684 38.5683 17.1655 38.2351L17.2626 37.9019L18.5405 38.3022C18.5405 38.3022 17.9358 39.2602 17.9082 39.2505C17.8823 39.2412 16.3574 39.5972 16.3574 39.5972L16.3581 39.5982Z" fill="#6B7B3E"/>
<path id="Vector_333" d="M16.3574 39.5981C17.3501 39.7096 18.1083 40.0364 18.1083 40.0364L18.5405 38.3031L16.3574 39.5981Z" fill="#4B5B19"/>
</g>
<g id="Group_167">
<path id="Vector_334" d="M17.3682 41.4685C17.3682 41.4685 17.8205 40.3022 17.8397 39.956L17.8572 39.6095L19.193 39.7049C19.193 39.7049 18.8247 40.7764 18.7975 40.774C18.7696 40.7705 17.3689 41.4695 17.3689 41.4695L17.3682 41.4685Z" fill="#6B7B3E"/>
<path id="Vector_335" d="M17.3672 41.4684C18.3593 41.3478 19.1721 41.4903 19.1721 41.4903L19.1921 39.7048L17.3672 41.4684Z" fill="#4B5B19"/>
</g>
<g id="Group_168">
<path id="Vector_336" d="M19.0111 43.2944C19.0111 43.2944 19.1548 42.0517 19.0844 41.7126L19.0139 41.3735L20.3304 41.1279C20.3304 41.1279 20.2447 42.2576 20.2179 42.2623C20.1905 42.266 19.0107 43.2962 19.0107 43.2962L19.0111 43.2944Z" fill="#6B7B3E"/>
<path id="Vector_337" d="M19.0105 43.2942C19.9396 42.9269 20.7619 42.8589 20.7619 42.8589L20.3302 41.126L19.0105 43.2942Z" fill="#4B5B19"/>
</g>
<g id="Group_169">
<path id="Vector_338" d="M20.2587 44.1478C20.2587 44.1478 20.5799 42.9388 20.5599 42.5923L20.54 42.2458L21.878 42.1926C21.878 42.1926 21.6308 43.2987 21.6022 43.2987C21.5737 43.2986 20.2587 44.1478 20.2587 44.1478Z" fill="#6B7B3E"/>
<path id="Vector_339" d="M20.2578 44.148C21.2296 43.9182 22.0541 43.9702 22.0541 43.9702L21.8772 42.1928L20.2578 44.148Z" fill="#4B5B19"/>
</g>
<g id="Group_170">
<path id="Vector_340" d="M21.9507 45.5675C21.9507 45.5675 21.9843 44.3173 21.885 43.9843L21.7847 43.6521L23.074 43.2915C23.074 43.2915 23.0884 44.4249 23.0613 44.4314C23.0342 44.4379 21.9497 45.5682 21.9497 45.5682L21.9507 45.5675Z" fill="#6B7B3E"/>
<path id="Vector_341" d="M21.951 45.5677C22.8435 45.1202 23.6573 44.98 23.6573 44.98L23.0743 43.2916L21.951 45.5677Z" fill="#4B5B19"/>
</g>
<g id="Group_171">
<path id="Vector_342" d="M24.0123 46.6293C24.0123 46.6293 23.7284 45.4108 23.548 45.1151L23.3676 44.8194L24.5237 44.1444C24.5237 44.1444 24.8242 45.2375 24.7996 45.2498C24.7746 45.2638 24.0113 46.63 24.0113 46.63L24.0123 46.6293Z" fill="#6B7B3E"/>
<path id="Vector_343" d="M24.0127 46.6291C24.7641 45.9702 25.515 45.6298 25.515 45.6298L24.5241 44.1442L24.0117 46.6298L24.0127 46.6291Z" fill="#4B5B19"/>
</g>
<g id="Group_172">
<path id="Vector_344" d="M15.6232 32.6539C15.6232 32.6539 16.702 32.0196 16.9298 31.7594L17.1587 31.4984L18.1486 32.401C18.1486 32.401 17.1962 33.0138 17.175 32.9937C17.1555 32.974 15.6225 32.6529 15.6225 32.6529L15.6232 32.6539Z" fill="#6B7B3E"/>
<path id="Vector_345" d="M15.623 32.6538C16.4757 33.1743 17.0256 33.7899 17.0256 33.7899L18.1484 32.4009L15.623 32.6538Z" fill="#4B5B19"/>
</g>
<g id="Group_173">
<path id="Vector_346" d="M15.6037 31.4571C15.6037 31.4571 16.6825 30.8228 16.9103 30.5626L17.1392 30.3017L18.1291 31.2043C18.1291 31.2043 17.1766 31.817 17.1555 31.7969C17.136 31.7772 15.603 31.4561 15.603 31.4561L15.6037 31.4571Z" fill="#6B7B3E"/>
<path id="Vector_347" d="M15.6035 31.457C16.4562 31.9775 17.006 32.5931 17.006 32.5931L18.1289 31.2042L15.6035 31.457Z" fill="#4B5B19"/>
</g>
<g id="Group_174">
<path id="Vector_348" d="M15.8674 34.9933C15.8674 34.9933 16.9461 34.359 17.174 34.0987L17.4028 33.8378L18.3927 34.7404C18.3927 34.7404 17.4403 35.3531 17.4191 35.3331C17.3997 35.3133 15.8667 34.9922 15.8667 34.9922L15.8674 34.9933Z" fill="#6B7B3E"/>
<path id="Vector_349" d="M15.8672 34.9932C16.7198 35.5136 17.2697 36.1293 17.2697 36.1293L18.3925 34.7403L15.8672 34.9932Z" fill="#4B5B19"/>
</g>
<g id="Group_175">
<path id="Vector_350" d="M33.432 12.0996C33.432 12.0996 33.0405 13.3971 33.0487 13.7725L33.0586 14.1484L31.6076 14.157C31.6076 14.157 31.916 12.9687 31.9452 12.9698C31.9755 12.9702 33.4302 12.0993 33.4302 12.0993L33.432 12.0996Z" fill="#6B7B3E"/>
<path id="Vector_351" d="M33.4325 12.0998C32.3712 12.3126 31.4816 12.2269 31.4816 12.2269L31.6089 14.1582L33.4325 12.0998Z" fill="#4B5B19"/>
</g>
<g id="Group_176">
<path id="Vector_352" d="M35.0355 13.3238C35.0355 13.3238 34.644 14.6212 34.6522 14.9967L34.6621 15.3725L33.2112 15.3811C33.2112 15.3811 33.5195 14.1929 33.5498 14.1932C33.58 14.1936 35.0348 13.3227 35.0348 13.3227L35.0355 13.3238Z" fill="#6B7B3E"/>
<path id="Vector_353" d="M35.036 13.3239C33.9747 13.5367 33.0851 13.451 33.0851 13.451L33.2124 15.3823L35.036 13.3239Z" fill="#4B5B19"/>
</g>
<g id="Group_177">
<path id="Vector_354" d="M34.8551 15.3516C34.8551 15.3516 34.1582 16.5134 34.0752 16.8806L33.9932 17.247L32.5845 16.9013C32.5845 16.9013 33.1742 15.8244 33.2029 15.8334C33.2325 15.8417 34.8558 15.3526 34.8558 15.3526L34.8551 15.3516Z" fill="#6B7B3E"/>
<path id="Vector_355" d="M34.8558 15.3514C33.7754 15.2982 32.9328 14.9974 32.9328 14.9974L32.5835 16.9007L34.8565 15.3524L34.8558 15.3514Z" fill="#4B5B19"/>
</g>
<g id="Group_178">
<path id="Vector_356" d="M33.4026 14.6543C33.4026 14.6543 33.0017 15.9491 33.0089 16.3253L33.0161 16.7015L31.5651 16.7012C31.5651 16.7012 31.881 15.5153 31.9113 15.5156C31.9423 15.5171 33.4026 14.6543 33.4026 14.6543Z" fill="#6B7B3E"/>
<path id="Vector_357" d="M33.4018 14.6545C32.3391 14.8608 31.4498 14.769 31.4498 14.769L31.5643 16.7014L33.4008 14.6552L33.4018 14.6545Z" fill="#4B5B19"/>
</g>
<g id="Group_179">
<path id="Vector_358" d="M31.5699 12.1506C31.5699 12.1506 31.196 13.4541 31.2108 13.8281L31.2252 14.2039L29.7748 14.2332C29.7748 14.2332 30.0659 13.0416 30.0972 13.0413C30.1274 13.0417 31.571 12.1499 31.571 12.1499L31.5699 12.1506Z" fill="#6B7B3E"/>
<path id="Vector_359" d="M31.5692 12.1508C30.5111 12.3794 29.6203 12.3051 29.6203 12.3051L29.7747 14.2344L31.5699 12.1519L31.5692 12.1508Z" fill="#4B5B19"/>
</g>
<g id="Group_180">
<path id="Vector_360" d="M29.6419 9.712C29.6419 9.712 29.7661 11.0617 29.9167 11.4062L30.0674 11.7507L28.7271 12.3051C28.7271 12.3051 28.5661 11.0885 28.5931 11.0776C28.6219 11.067 29.6419 9.712 29.6419 9.712Z" fill="#6B7B3E"/>
<path id="Vector_361" d="M29.6428 9.71224C28.7397 10.3094 27.8821 10.5635 27.8821 10.5635L28.7263 12.305L29.6428 9.71224Z" fill="#4B5B19"/>
</g>
<g id="Group_181">
<path id="Vector_362" d="M27.2534 9.42039C27.2534 9.42039 28.1195 10.4628 28.4375 10.6632L28.756 10.8619L27.9633 12.077C27.9633 12.077 27.1422 11.1645 27.1594 11.1393C27.1767 11.114 27.2534 9.42039 27.2534 9.42039Z" fill="#6B7B3E"/>
<path id="Vector_363" d="M27.254 9.42027C26.8461 10.4228 26.2832 11.1183 26.2832 11.1183L27.9639 12.0769L27.254 9.42027Z" fill="#4B5B19"/>
</g>
<g id="Group_182">
<path id="Vector_364" d="M26.1635 10.709C26.1635 10.709 27.0296 11.7514 27.3477 11.9518L27.6661 12.1505L26.8734 13.3656C26.8734 13.3656 26.0523 12.4531 26.0703 12.4289C26.0876 12.4036 26.1642 10.71 26.1642 10.71L26.1635 10.709Z" fill="#6B7B3E"/>
<path id="Vector_365" d="M26.1641 10.7088C25.7563 11.7113 25.1933 12.4069 25.1933 12.4069L26.874 13.3655L26.1641 10.7088Z" fill="#4B5B19"/>
</g>
<g id="Group_183">
<path id="Vector_366" d="M29.9236 11.7503C29.9236 11.7503 29.6359 13.0746 29.6747 13.4487L29.7146 13.8222L28.2692 13.947C28.2692 13.947 28.4814 12.7387 28.5113 12.7364C28.5419 12.735 29.9226 11.751 29.9226 11.751L29.9236 11.7503Z" fill="#6B7B3E"/>
<path id="Vector_367" d="M29.9245 11.7507C28.884 12.0469 27.9899 12.0317 27.9899 12.0317L28.2711 13.9467L29.9255 11.75L29.9245 11.7507Z" fill="#4B5B19"/>
</g>
<path id="Vector_368" d="M27.8237 11.5117C27.8237 11.5117 26.6004 12.8236 26.1987 12.6921C25.7961 12.5613 25.6424 11.8753 25.6424 11.8753C25.6424 11.8753 25.2415 12.7185 24.7374 12.8969C24.2332 13.0752 24.0094 12.2885 24.0094 12.2885L23.932 12.6353C23.8546 12.982 23.6748 13.4736 23.3805 13.5811C23.0868 13.6896 22.6486 12.9934 22.6486 12.9934C22.6486 12.9934 22.8628 13.7132 22.3283 14.3338C21.7946 14.9554 20.9539 14.0187 20.9539 14.0187C20.9539 14.0187 21.1498 14.5485 21.2755 14.9775C21.3662 15.2847 21.3325 15.5898 21.1865 15.7807C21.2174 15.6367 21.228 15.5664 21.2097 15.5924C21.1748 15.6446 21.1424 15.7402 21.1075 15.863C21.0642 15.8985 21.015 15.9276 20.9594 15.9474C20.6311 16.06 19.7278 15.571 19.7278 15.571C19.7278 15.571 20.6496 17.1532 20.4222 17.5287C20.3784 17.5855 20.3332 17.6403 20.2849 17.6927C19.629 18.384 18.2568 17.8364 18.2568 17.8364C18.2568 17.8364 19.5824 19.3265 19.0612 19.764C18.54 20.2016 17.2508 20.3221 17.2508 20.3221C17.2508 20.3221 19.0363 21.3354 18.6462 21.9807C18.2568 22.627 17.0902 22.9386 17.0902 22.9386C17.0902 22.9386 17.1881 22.9634 17.7823 23.3313C18.3038 23.6542 18.439 24.0708 18.3159 24.5267C17.7262 25.1189 16.4989 24.8987 16.4989 24.8987C16.4989 24.8987 18.0967 26.0924 17.6752 26.6255C17.2537 27.1587 16.0138 27.5367 16.0138 27.5367C16.0138 27.5367 17.9661 28.1693 17.7142 28.881C17.4623 29.5927 16.3819 30.1321 16.3819 30.1321C16.3819 30.1321 16.4827 30.1369 17.1386 30.3773C17.4714 30.5002 17.683 30.6787 17.7983 30.8987C17.8017 30.9939 17.7986 31.0995 17.7822 31.2142C17.7029 31.7828 16.5151 31.6602 16.5151 31.6602C16.5151 31.6602 17.6306 32.3242 17.7062 32.9044C17.7818 33.4845 16.4159 33.7833 16.4159 33.7833C16.4159 33.7833 17.9426 34.3682 17.9194 34.8011C17.8952 35.2347 16.9221 36.2906 16.9727 36.3297C17.0233 36.3687 18.3952 36.2924 18.3952 36.2924L17.3856 37.6913L18.5366 37.4714L17.4774 39.5177L18.9643 39.216L18.3437 41.3312L20.031 40.8195L19.9474 41.9566L20.5589 41.8102C20.5589 41.8102 22.4451 44.7489 24.2377 44.8871C28.2179 45.193 32.6557 42.0892 33.9874 34.4409C34.4122 32.003 34.5446 27.1688 34.5401 26.1381C34.5276 23.4039 33.7351 19.6303 33.2668 18.4715C30.957 12.7591 28.4911 12.5244 28.0409 12.5925C27.5906 12.6607 27.8185 11.5107 27.8185 11.5107L27.8237 11.5117Z" fill="#FFE6C1"/>
<g id="Group_184">
<path id="Vector_369" d="M20.4209 21.2815C19.6325 23.6415 18.9893 29.0187 19.1272 31.1484C19.2643 33.277 19.2862 35.7077 20.0703 37.3235C20.8544 38.9394 22.4565 41.1129 22.69 42.0086C22.9235 42.9042 23.962 44.8209 25.5342 44.3426C27.107 43.8654 27.7391 43.5864 30.048 40.7248C32.3557 37.864 33.3812 35.3741 33.4648 32.8581C33.5491 30.3431 33.131 28.769 33.1003 27.1425C33.0542 24.6188 31.8817 17.3801 29.1552 14.3026C27.871 12.8534 23.6753 11.533 20.4196 21.2794L20.4209 21.2815Z" fill="#F4C895"/>
<path id="Vector_370" d="M20.1407 30.1359C20.1407 30.1359 20.1017 35.3297 20.5494 36.6256C20.997 37.9215 22.4319 39.6118 22.8678 40.4101C23.3036 41.2085 23.7243 42.1432 23.9086 42.7333C24.093 43.3234 24.8715 44.0939 25.7364 43.5753C26.6014 43.0566 27.9112 41.3737 28.9791 40.0011C30.0478 38.6295 31.627 36.6176 31.9035 35.7526C32.18 34.8876 32.1815 33.5242 32.3401 31.4597C32.4976 29.3959 32.3102 27.7442 32.3553 27.2619C32.5519 25.152 31.538 20.7385 31.538 20.7385L22.312 30.6539L20.1417 30.1352L20.1407 30.1359Z" fill="#E77F40"/>
<path id="Vector_371" d="M24.6346 42.6823C24.8953 42.9263 25.2915 42.9551 25.5859 42.753C26.5926 42.0657 26.4315 41.5604 29.6964 37.5915C31.218 35.7418 31.6336 32.9291 31.6251 31.388C31.6159 29.8459 32.385 26.3979 31.9079 22.3959C31.4308 18.3938 29.3793 14.9482 28.1951 14.256C27.2873 13.7251 23.0463 13.4812 21.3892 19.5176C19.7322 25.5539 19.8753 29.3124 20.0939 32.2587C20.3125 35.2051 20.615 36.7814 22.659 39.26C24.8909 41.9661 23.9937 42.0851 24.6336 42.683L24.6346 42.6823Z" fill="#FFCA00"/>
<path id="Vector_372" d="M24.0137 15.7754C23.6542 16.1838 23.3542 16.6507 23.0941 17.128C22.0231 19.0863 21.5086 21.3287 21.6217 23.5322C21.6918 24.9083 22.1543 26.0696 22.7566 27.2842C23.2863 28.3502 24.831 28.3317 25.7832 27.8331C26.7313 27.3374 27.3251 26.3612 27.7615 25.3918C29.087 22.4545 29.7635 18.7319 28.2563 15.7946C27.8978 15.0966 27.3841 14.5493 26.5427 14.5013C25.9687 14.4692 25.3949 14.671 24.9093 14.9868C24.5724 15.2058 24.2759 15.4753 24.012 15.7751L24.0137 15.7754Z" fill="#FFDF82"/>
<path id="Vector_373" d="M20.9994 35.7238C20.9973 35.7823 21.002 35.8421 21.0132 35.9005C21.0719 36.2266 21.2445 36.5726 21.3888 36.8704C21.5683 37.2418 21.7803 37.597 22.0199 37.9334C22.8924 39.1635 23.9058 40.017 24.1294 40.7769C24.353 41.5369 24.616 42.2489 25.0961 42.1079C25.5744 41.9666 26.1471 40.7964 26.9746 39.6941C27.8021 38.5918 29.241 36.962 29.7297 35.9194C30.2173 34.8776 30.5553 32.5589 30.65 31.5042C30.7447 30.4494 30.9355 28.6855 31.0072 27.804C31.0796 26.9235 30.2751 27.0574 29.4985 30.1265C28.7219 33.1956 27.6506 35.1646 26.3117 36.4742C25.6806 37.0917 24.7999 37.3781 23.9259 37.3042C23.5806 37.2753 23.2328 37.1942 22.92 37.0412C22.4953 36.8339 22.2633 36.4428 21.966 36.0856C21.7836 35.8663 21.5992 35.6484 21.4113 35.4343C21.3578 35.3732 21.2866 35.3062 21.2076 35.3225C21.1603 35.3322 21.1245 35.3701 21.0974 35.4095C21.0354 35.5013 21.0066 35.611 21.0022 35.7235L20.9994 35.7238Z" fill="#FFB41A"/>
<path id="Vector_374" d="M20.9518 32.4441C20.8192 32.3949 20.6736 32.4806 20.6516 32.6201C20.6205 32.8168 20.674 33.109 21.0993 33.4029C21.8411 33.9148 23.4518 34.3345 23.8549 34.0629C24.2591 33.7906 23.8644 33.5373 23.1723 33.4221C22.4809 33.308 21.9671 33.1659 21.6588 32.9468C21.3505 32.7277 21.1026 32.5004 20.9552 32.4448C20.9545 32.4438 20.9528 32.4434 20.9511 32.4431L20.9518 32.4441Z" fill="#FFB41A"/>
<path id="Vector_375" d="M21.2401 34.2569C21.3998 34.4077 22.6515 35.0119 22.9883 35.0525C23.3261 35.0925 23.197 35.2224 23.0561 35.2599C22.9151 35.2974 22.1569 35.0037 21.6413 34.6918C21.1257 34.3798 20.9204 34.2811 20.9717 34.2132C21.023 34.1453 21.2401 34.2569 21.2401 34.2569Z" fill="#FFB41A"/>
<path id="Vector_376" d="M27.0907 31.8609C27.8188 32.1016 29.4405 32.2137 30.1603 31.9004C30.8791 31.5878 31.1637 29.8801 30.6687 29.9442C30.1727 30.009 29.3191 30.9055 28.4178 30.9568C27.5166 31.0081 26.9576 31.0708 26.8025 31.3475C26.6474 31.6242 26.9513 31.8148 27.0907 31.8609Z" fill="#FFB41A"/>
<path id="Vector_377" d="M20.8031 27.9348C20.8031 27.9348 20.7914 30.0343 20.8952 30.7483C20.9989 31.4623 22.042 32.3811 22.9098 32.4592C23.7776 32.5372 25.4584 31.6368 25.7727 30.2944C26.0881 28.9513 25.0136 28.9046 23.7707 28.776C22.5278 28.6474 21.9232 26.8148 21.3883 26.807C20.8534 26.7993 20.8014 27.9345 20.8014 27.9345L20.8031 27.9348Z" fill="#FFDF82"/>
</g>
</g>
</svg>
